<svg xmlns="http://www.w3.org/2000/svg" viewBox="0 0 442.62 651.34"><defs><style>.cls-1{isolation:isolate;}.cls-2{fill:#f9af80;}.cls-3{fill:#edf2f3;}.cls-4{fill:#e0e0e0;}.cls-5,.cls-6{fill:#ccc;}.cls-5,.cls-7{mix-blend-mode:multiply;}.cls-8{fill:#090b0c;}</style></defs><g class="cls-1"><g id="Layer_2" data-name="Layer 2"><g id="Layer_2-2" data-name="Layer 2"><path class="cls-2" d="M205.83,243.28c10.82-11.93,17.38-19.13,41.55-19.52a55.57,55.57,0,0,1,37.82,14c10-12.17,20.12-26.25,23.32-35.31,6-17-1.57-46.89-3.23-53-26.46-16.68-55-21.46-85-14.2a130.35,130.35,0,0,0-35.25,14.42c-1.24,5.3-3.29,14.6-3.29,17.42,0,.67,0,1.92-.06,3.58-.18,8.05-.67,29.41,1.47,35.23C185.26,211.45,194.41,229.42,205.83,243.28Zm59-27.19s5-4.36.45-10.3c-2.17-2.8-3.86-3.67-5-3.82-.73,3.1-4.81,3.6-4.81,3.6,6.27-3.7-1.8-15.34-1.8-15.34,4.4,4.36,6.21,7.49,6.63,9.74,2.26.88,6.19,2.92,8,6.94C271,212.73,268.3,216.21,264.83,216.09Zm2.66-35.83c7.39,1.93,21.25-.08,21.25-.08C277.07,188.07,267.49,180.26,267.49,180.26Zm21.19-6.5c-4-4.25-6.71-4.7-6.71-4.7a7.86,7.86,0,0,1-2.24,5.54l-7,0c-2-2.19-1.51-5.94-1.51-5.94a11.6,11.6,0,0,0-5.6,5.83l-4.26-.45.9-1.12A17.05,17.05,0,0,1,276.59,165c6.05,0,12.09,5.38,13.66,6.5a11.42,11.42,0,0,0,3.59,1.56Zm-29.56-18.14c6.05-6.49,29.79-6.71,34.72-1.34s4.92,9.85,4.92,9.85S293.84,157,288.24,157s-22.85-.67-25.09,1.79a40.86,40.86,0,0,0-10.75,18.59S253.07,162.12,259.12,155.62Zm-2.57,54.87c4.81.34,3.69,3.48,3.69,3.48s-.22-1.68-2.8-1.91-2,3-6.61,1.35C250.83,213.41,251.73,210.16,256.55,210.49Zm-38.13-35.94-7,0a7.82,7.82,0,0,1-2.24-5.54s-2.69.45-6.72,4.7l-5.15-.67a11.41,11.41,0,0,0,3.58-1.56c1.57-1.12,7.62-6.5,13.66-6.5a17.08,17.08,0,0,1,14.34,7.84l.89,1.12-4.25.45a11.65,11.65,0,0,0-5.6-5.83S220.43,172.36,218.42,174.55Zm-16,5.63s13.86,2,21.25.08C223.65,180.26,214.08,188.07,202.4,180.18Zm23.91,35.91c-3.47.12-6.16-3.36-3.47-9.18,1.85-4,5.79-6.06,8-6.94.41-2.25,2.22-5.38,6.62-9.74,0,0-8.06,11.64-1.79,15.34,0,0-4.08-.5-4.81-3.6-1.19.15-2.88,1-5,3.82C221.27,211.73,226.31,216.09,226.31,216.09Zm14-2.68c-4.59,1.68-4-1.57-6.61-1.35s-2.8,1.91-2.8,1.91-1.12-3.14,3.7-3.48S240.31,213.41,240.31,213.41Zm-43-59.13c4.93-5.37,28.67-5.15,34.71,1.34s6.72,21.73,6.72,21.73A40.86,40.86,0,0,0,228,158.76c-2.24-2.46-19.48-1.79-25.08-1.79s-10.53,7.16-10.53,7.16S192.38,159.66,197.31,154.28Z"/><path class="cls-3" d="M202.46,173.76s7.61,1.24,23.07.68c0,0-.9-7.62-11.2-7.51C214.33,166.93,206,166.93,202.46,173.76Z"/><path class="cls-3" d="M288.68,173.76s-7.61,1.24-23.06.68c0,0,.89-7.62,11.19-7.51C276.81,166.93,285.1,166.93,288.68,173.76Z"/><path class="cls-2" d="M261,252.82l.36,1.44a29.11,29.11,0,0,0,2.49,6.65,110.09,110.09,0,0,0,10.52-10.57c-3.47-4.89-9-11.66-11.84-12.76-4.59-1.76-30.83-2-37.39,2.81-5.47,4-8.44,10.81-9.34,13.15,4.47,3.74,9.06,6.34,13.55,7l5.4-6.67c-5.72-1.61-9-5.64-10.21-6.81,0,0,6.41,5,23.49,5,15.34,0,19.81-4.27,19.81-4.27A16.15,16.15,0,0,1,261,252.82Zm5.74-7.71c-1.17-.13-16.83-1.55-17.74-1a21.73,21.73,0,0,1-2.46,1.55c-.51.13-1.55-1.16-2.71-1.42s-19,.9-19,.9c3-2.2,18-3.36,19.54-3s1.92,1.62,4.53.38C253.5,240.32,267.87,245.24,266.71,245.11Z"/><path class="cls-4" d="M321.36,155.17v0c.93-5.16,6.28-50.41,7.11-57.45-3.75-4.88-29.15-34.89-86.05-33.52-58.19,1.42-71.51,40.28-72.77,44.48L174,151.36c.89-.67,3.3-2.44,7-4.74l.08-.3.29.07a134.32,134.32,0,0,1,37.86-15.7C244.34,124.61,282.42,123.93,321.36,155.17Z"/><path class="cls-2" d="M176.18,203.12l-.31,1,.31-1a6.73,6.73,0,0,1-3.91-3.59,3.64,3.64,0,0,0,3.62,0l0-.23-.34-1,.34,1,0,.23h0c-1.12-14.77-2.17-30.5-2.74-39.21a9.42,9.42,0,0,0-10.33,4.19c-4.84,7.75-4,31.11.21,37.33,2.2,3.23,7.34,10.81,11,10.83.38,0,1.38,0,2.73-1.63C176.6,208.51,176.39,205.84,176.18,203.12ZM169.36,185c-1.69-2.25-1.41-4.22-1.41-8.16s-5.63-3.95-5.63-3.95c6-7.32,9.92,3,9.43,7.25s-2.39,4.3-.28,6.76,2.67,7.11,2.67,7.11-2.53.28-3.38-.56S171,187.23,169.36,185Z"/><path class="cls-4" d="M242.32,59.5a151.72,151.72,0,0,1,21.73,1c5.52-2.27,13.5-6.26,16.25-10,4.14-5.7,7.76-11.39,7.76-11.39s.52,19.16-3.62,22.78c-1.08,1-1.1,1.82-.54,2.6a104.31,104.31,0,0,1,32.32,15.35c11.07,4.17,26.95,9.68,35.27,10.4C365.08,91.34,379.06,84,379.06,84c-8.55,13.6-40.78,14-40.78,14,5.05,8.16,35.34,16.7,42.72,16.7s17.86-12.43,17.86-12.43-1.94,8.94-14,15.54c-8.3,4.55-24.72.79-36.16-2.74,9.36,7,20.5,13.58,29.17,13.09,16.32-.92,30.8-5.72,32.57-18.93-6.49-13.5-25.16-29-25.38-29.23l-1.39-1.15.76-1.64c0-.05,4.12-10.91-17.06-33.53C343.78,18.41,326.86,5.48,299.91,4.75c-11.33-.31-20.72.24-30.66.82-15.48.9-31.49,1.83-57.59-.05-42.25-3-60.19,22.32-61.59,39-.36,4.33-2,9.35-3.74,14.67-2.52,7.66-5.26,16.08-5.2,24.71,3.27,4.5,9,10.06,17,9.35a50.44,50.44,0,0,0,18.36-5.8C187.12,74.66,206.86,60.37,242.32,59.5Z"/><path class="cls-4" d="M288.26,314.07c-7.31,2.85-13.78,5-19.49,6.82-21.71,7.07-31.47,10.26-34.88,37a50.23,50.23,0,0,1,7.29-1.19c73.53-7.44,90.72-56.2,92.89-63.54-2.79-4.25-14.49-22.3-17.79-31.73a18.48,18.48,0,0,0-2-4.24C316.62,268,320.77,301.43,288.26,314.07Z"/><path class="cls-2" d="M247,287.83c-17.27,0-42.11-19.57-56.54-36.4l-2.19,44.7c1.5,6.8,5.64,11.53,10,16.49C203,318,207.89,323.55,209,331.8c2.08,16.14,0,35.74-.13,36.54,0,0,1.71,2.23,3.06,3.75,4-6.85,11-10.68,17.14-12.8,3.57-31.5,15.45-35.39,38.3-42.84,5.65-1.84,12.05-3.92,19.24-6.72,20.29-7.89,24.73-24.52,24.8-37.38l-4.28-29.52C295.17,259.24,269.56,287.83,247,287.83Z"/><path class="cls-4" d="M147.79,104.14a45,45,0,0,0,4.71,5.45,33.58,33.58,0,0,0,13-3.1c.09-.29.21-.62.35-1C162,105.81,153.33,106.19,147.79,104.14Z"/><path class="cls-2" d="M322,161.94c-.79,9.91-2.62,31.77-4.67,48.83,1.47,1.92,2.59,2,2.95,1.93,3.7,0,8.84-7.6,11-10.83,4.22-6.22,5.05-29.58.21-37.33a7,7,0,0,0-4.31-3.49,7.46,7.46,0,0,0-5.09,1.08Z"/><path class="cls-4" d="M43.92,526.59c12.92-41.14,49.41-44.36,56.87-44.59a106.65,106.65,0,0,1,8.63-11.1c-8.77-1.42-73.12-9.94-95.85,39.24-24.13,52.2,8.41,68.73,8.74,68.9l.4.19.3.33c.15.16,15,16.08,31,16.5A23,23,0,0,0,69,590.91C59.5,585.27,31.83,565.11,43.92,526.59Z"/><path class="cls-2" d="M97.69,486.86l0-.06c-10.7.92-38.52,6.67-49.36,41.18-12.64,40.24,20.89,58,25.23,60.15,51.65.8,100.56-7,115.21-9.51a430.09,430.09,0,0,1-67.4-92.94Z"/><path class="cls-4" d="M107.19,465.88c-.91-1.59-2-3.43-3.08-5.49-1.92-3.54-4.1-7.71-6.16-12.33-1-2.31-2-4.75-2.89-7.29a30.87,30.87,0,0,1-1.67-8.09l-.1-2-.2-1.9c-.18-1.27-.38-2.56-.65-3.83-.5-2.54-1.11-5-1.68-7.47A115.22,115.22,0,0,1,88.16,404a51.44,51.44,0,0,1-.39-5.46,40.69,40.69,0,0,1,.13-4.21c0-1.17.25-2.07.31-2.69s.13-.95.13-.95l-.08.95c0,.63-.18,1.53-.16,2.7a38.83,38.83,0,0,0,.1,4.18,53.08,53.08,0,0,0,.68,5.38c.66,3.91,2.66,8,4.09,12.81.7,2.39,1.45,4.86,2.11,7.43.34,1.28.62,2.59.88,3.93l.33,2.05.21,2c.22,2.52.27,5.28,1.16,7.68s2,4.67,3.17,6.86c2.25,4.38,4.6,8.35,6.68,11.72s3.91,6.13,5.19,8c.13.2.26.37.38.55,10-10.09,24.59-20.07,39.58-13.83,19.72,8.22,71.94,31.67,92.25,40.83,3.19-45,18.36-71.53,23.16-78.9-5.24-3.25-20.14-12.35-39.75-23-25.18-13.64-51.12-62.06-52.21-64.12l-.27-.51v-.58c0-.17,0-3.46.75-17.81-13.08,8.94-51.17,34.71-69.31,44.21-2.15,1.12-4.19,2.08-6.16,3-17.08,8-29.5,13.78-63.33,120.73C63.84,462.1,96,464.45,107.19,465.88Zm134.92-52.24a11.65,11.65,0,1,1-11.65,11.65A11.66,11.66,0,0,1,242.11,413.64Zm-71.84-7.38a10.49,10.49,0,1,1-10.48,10.49A10.5,10.5,0,0,1,170.27,406.26Z"/><path class="cls-4" d="M402,347.64c-23.86-11.93-54.91-41.39-64.26-50.53a85.1,85.1,0,0,1-16.3,27.2c-12.68,14.49-36.82,32.67-79.83,37-.12,0-9.54,1.91-9.54,1.91-6.1,1.87-13.45,5.51-16.78,12.46,5,5.18,10.2,9.57,15.29,12.32,24.64,13.35,41.9,24.31,42.08,24.42l2.11,1.35-1.5,2c-.2.28-20.49,28.18-23.78,80.23l3.28,1.49c2.83.09,15.8,1,22.32,10.09a11,11,0,0,1,3.74-2.74,13.13,13.13,0,0,1,1.76-.63c-1.9-3.44-1.7-7.69.61-12.64,4.37-9.37,14.39-18.66,24.08-27.63,6.75-6.26,13.13-12.17,16.48-17.2,1.86-2.79,4.44-7.77,7.43-13.55,10.59-20.44,26.6-51.33,46.5-58.79l-4,3.86c-15.92,12.24-28.75,38.47-38.39,57.08-3.18,6.14-5.69,11-7.69,14-3.66,5.49-10.24,11.58-17.19,18-9.36,8.68-19,17.65-23,26.19-1.68,3.61-1.9,6.5-.65,8.6a6.86,6.86,0,0,0,1.61,1.79c2.82.37,11.11,1.7,16.61,4.74,9.32,5.16,19.28,17.54,19.28,17.54l-22.77-14.48C327.91,551.55,329.69,584.31,326,605c-3.25,18.27-11,30.34-14.43,35l7.84,4.71c22.22,6.64,36-3.2,61.27-43.62,24.82-39.7,55.58-176.86,57.24-184.31C437.7,412.59,434.21,363.77,402,347.64Z"/><path class="cls-4" d="M204.34,332.39c-.89-6.83-5.09-11.62-9.55-16.7-5.2-5.93-11.1-12.64-11.7-23.33a74,74,0,0,1,0-7.57,96.64,96.64,0,0,0-1,9.64c-1.27,22.36-1.5,30-1.54,31.92a299.06,299.06,0,0,0,24.14,37C205.12,357.13,205.82,343.87,204.34,332.39Z"/><path class="cls-4" d="M284.73,508.5a8.63,8.63,0,0,0-4,.63,6.57,6.57,0,0,0-3.3,3.36c.06.39.15.91.26,1.58.22,1.47.51,3.57.76,6.08a151,151,0,0,1,.78,18.45c0,1.68-.09,3.35-.18,5s-.21,3.26-.35,4.82-.3,3.07-.48,4.49-.34,2.77-.57,4-.39,2.36-.56,3.36-.4,1.86-.55,2.58c-.3,1.42-.48,2.23-.48,2.23s.11-.82.28-2.27c.09-.72.2-1.59.32-2.6s.17-2.14.27-3.38.18-2.58.21-4,.12-2.91.09-4.47,0-3.15-.08-4.77-.12-3.27-.25-4.92a148.17,148.17,0,0,0-2.33-17.93c-.46-2.42-.92-4.41-1.26-5.79l-.4-1.58-.08-.29c-3.23-7.59-12.11-9.89-17.09-10.59,5.39,15.08,23.05,74.85-17.95,115.55-.46,2.28-1.45,11.75,12.24,17.38,14.81,6.1,21.26-2.19,21.93-3.14.07-.14.15-.32.26-.56l1-2.2c.84-1.91,2-4.68,3.29-8s2.7-7.34,4.07-11.65c.7-2.15,1.33-4.39,2-6.67s1.26-4.61,1.8-7,1.13-4.69,1.53-7,.91-4.63,1.19-6.88.67-4.4.83-6.48.46-4,.48-5.83.15-3.48.21-5-.05-2.76-.06-3.82c0-2.12-.07-3.34-.07-3.34l.27,3.33c.08,1.06.21,2.35.29,3.83s.06,3.15.09,5-.08,3.8-.13,5.89-.25,4.3-.44,6.58-.48,4.62-.79,7-.74,4.79-1.12,7.2-.94,4.79-1.4,7.16-1.05,4.66-1.62,6.88c-1.14,4.44-2.31,8.56-3.43,12.06s-2.12,6.41-2.86,8.43l-.64,1.68c12.74,12.5,27.4,7,30,5.91,1.74-2.13,11.28-14.61,14.8-34.82C326.54,574.87,304.7,512,284.73,508.5Z"/><path class="cls-2" d="M250.4,501.59c-8.35-3.78-76.4-34.48-99.53-44.12-18.33-7.63-37.34,15-44.19,24.28l17.45-.87.7,1.3c43.62,81.69,100.46,124.48,110.53,131.64C276.28,572,253.49,509.41,250.4,501.59Z"/><path class="cls-5" d="M258.29,514.86s18.38,37.8,11.91,79c0,0,10.87-2.07,13.46-27.44s.26-33.4.26-33.4,13.46,19.42,13.46,53.59S309,615.3,312.66,606s4.4-52.29-7-75.33l-7.25-19.41s32.1,8.41,46.47,53.07,90.73-157.14,89.7-173.19,12.94,19.16-5.18,71.45-72.49,154.29-79.22,155.32-22.78,7.77-22.78,7.77-28,9.84-29.51,9.84-34.17-17.09-34.17-17.09l-11.91-21.75S269.42,573.37,258.29,514.86Z"/><path class="cls-5" d="M179.85,297.15s2.85,20.71,13.21,33.65,14,28,12.68,38.31c0,0-25.63-36-27.18-43.75S179.85,297.15,179.85,297.15Z"/><path class="cls-5" d="M231.89,359.79s-5.18-10.61,15.27-15.27,72.49-16.57,81-59.8l8,9.84s8,32.62-30,58.76-63.94,26.41-69.63,31.33l43.23,28.21s-14.24,46.08-6.73,47.12,30.8-6.21,40.12-34.69,16.57-29.77,16.57-29.77l-6.47,18.9s9.84-24.6,24.59-33.92,22.52-14,22.52-14l-7,10.61s12.94-9.58,26.92-8.8c0,0-23.82,7-33.66,22.78s-32.87,54.62-32.87,54.62l-22.27,18.64L264.25,483l-7.51-26.15,12.42-43.23-49.18-29-8.29-9.32S222.83,362.12,231.89,359.79Z"/><path class="cls-6" d="M256.48,438s-10.87,26.41-16.57,39.09c0,0-25.11-10.09-36.76-22.52s-43.75-19.93-43.75-19.93l4.4,8.28s-22-14-33.91-12.42S108.66,399.92,112,386.72c0,0-7.51,11.65-8,16.82,0,0-12.42-20.45-8.28-39.34,0,0-16.57,17.34-11.13,48.4l2.85,15.28-9.58-11.39s6.47,25.11,6.47,28.73-17.6,8.29-19.93,6.47-2.85-42.71-.26-51.51-8,23-10.1,45S53.78,469,53.78,469l43-1.29L119,452.21l21-3.62,25.88,11.13L247.42,497Z"/><path class="cls-6" d="M99.08,482.76s4.66-9.32,4.41-10.87-10.1-10.1-10.1-10.1l-40.64,8.54-7,4.66s24.59-2.07,31.06,1.56S45,489.23,31,520c0,0,4.4-21.75,25.11-32.62,0,0-25,3.49-35.46,20.77,0,0-3.5-6,0-14.17,0,0-11.27,17.28-12.43,27.77s15.34,43.68,16.5,44.26,13.79-29.9,13.79-30.67S57,494.6,66.66,491.69,99.08,482.76,99.08,482.76Z"/><path class="cls-5" d="M120.44,462.57s-1.55,8.93,4.27,10.48c0,0,3.5-7.76,7.77-8.54,0,0,46.6,92.81,96.3,93.58s21.75-60.57,21.75-60.57S279.26,561.2,242,613.23l-7,3.89S150.34,548,124.71,482.76l-21.35,1.16S113.26,469.56,120.44,462.57Z"/><path class="cls-5" d="M50.16,510.33c.85-1.3-6.22,36.5,6.21,45.43s64.46,2.72,64.46,2.72-34.17-3.49-52-8.93c0,0,54-.78,70.67-3.88,0,0-21.75-33-18.25-62.52,0,0,50.09,78.05,70.28,95.52,0,0-72.22,17.48-123.87,11.65C67.63,590.32,17.15,560.81,50.16,510.33Z"/><path class="cls-5" d="M186.84,250.55s21,43.1,53.59,48.15c0,0,14.76,4.66,23.3-5.05,0,0-4.27,21.36-15.92,21.36s-16.31-15.92-16.31-15.92-9.71,15.14-12,25.24S191.11,299.09,188,285.89s-2.33,14.75-1.56,16.31,18.26,22.52,18.26,22.52,3.1,27.18,3.49,29.12-.39,15.53-.39,15.53l3.88,4.27,16.7-12,3.5-3.89s3.49-21.74,7-25.24,28.73-14,28.73-14l21-5.82,21-17.86,3.11-23.69-5.44-33.39s-36.89,33.78-38.06,34.17-34.94,5.82-34.94,5.82l-40.78-31.06S187.62,245.11,186.84,250.55Z"/><g class="cls-7"><path class="cls-6" d="M246.9,239.81a11.47,11.47,0,0,0-3-1.3C242.11,238,229,239.81,225,245c0,0,14.36-.9,17.21-1.29a5.85,5.85,0,0,1,4.4.91,10,10,0,0,1,4-1.69c1.81-.13,15.79,1.94,15.79,1.94s-8.42-5.56-17-5.95Z"/><path class="cls-6" d="M253.63,129.91s8.55,4.92,10.36,14.76c0,0,31.58-.78,33.91,16.57,0,0-8-7.51-19.16-6.73s-19.93,2.59-20.45,5.17c-.23,1.19-1.61,5.3-3,9.41a4.72,4.72,0,0,0-2.4,3.6,34.34,34.34,0,0,0-.55,4.77c-.3.86-.49,1.38-.49,1.38l.45-.13c-.1,4.91.59,9.95,1.95,11.85,1.94,2.71,4.85,9.7,4.85,9.7,2.13-.19,2.52,1.75,6,4.66a21,21,0,0,1,3.55,5.26c-.35,3.44-14.49.24-14.49.24s5.57-4.4,5.18-9.06c0,0-4.79,5.18-11.65,5.18s-12.3-.13-14.89-4.66c0,0,1.94,6.08,4.4,7s-11.39,0-12.55,6.21c0,0,2.46,2.07,11.65,1.56l6,.13.39,7.89,7.77.13-.52-7.38s5.56,8.42,12.42,9.06a9.43,9.43,0,0,0,3.05-.22c3.12,5.15,25.56,16.27,25.56,16.27l20.19-39.6,3.63-46.86-3.37-14S263.73,125.77,253.63,129.91Zm8.8,43.24c1.3-3.11,4.15-13.47,12.95-13s17.08,12.17,17.08,12.17-9.83,4.66-19.15,4.4a37.48,37.48,0,0,1-12-2.25A3.94,3.94,0,0,0,262.43,173.15Zm11.72,43.52a27.65,27.65,0,0,0-.82-3.06c-.05-.2-.09-.4-.15-.6a14.19,14.19,0,0,0-.59-1.45,82.43,82.43,0,0,0-10.22-18.29c-2.62-3.33-2.83-11.67-2.6-17.65l.09-.05c2.21,2.91,6.78,7.41,14,7.41,10.62,0,18.38,1,19.68,5.44C294.43,191.57,283,207.08,274.15,216.67Z"/><path class="cls-6" d="M329.16,172.5c-1.36-2.33-5.24,2.72-5.63,3.49s1.36,6.61,1.36,6.61l-1.75,6s-2.33,3.89-1.36,7,5.63,0,8.16-10.29S329.16,172.5,329.16,172.5Z"/><path class="cls-6" d="M169.76,183s1.16-1.74.58-5.24-6.07-7-6.21-5.82c-2.53,20.19,7.76,22.13,7.76,22.13s0-1.94-.19-5.24A12.74,12.74,0,0,0,169.76,183Z"/></g><path class="cls-6" d="M175.45,92.9s2.59,38.83,4.92,43.49,18.9-17.87,106.66-14.76c1.83.07,15,3.37,15.53-7S255.19,93.15,221,98.07c0,0,33.92-14,74-1.29,0,0-25.37-46.08-97.33-24.59,0,0,27.95-20.46,79.21-4.92s48.93,46.34,48.93,47.11-14.24,23.56-14.24,23.56-65.24-16-94.23-2.33-44,17.6-44,17.6l-5.95-50.48Z"/><path class="cls-6" d="M147.24,40.6c.19-1-2.08,15.28,8,22.52s23.56,8.55,29.25,6.22S205,53.81,232.66,53.55,285.22,45,284.44,26.62s22.78,3.63,13.46,22.78,66.27,45.05,88.28,22l4.91,11.13S385.66,103,363.14,102c0,0,25.88,12.94,38.31-5.18l7.25,5.69s-10.36,20.71-31.33,21c0,0,19.94,3.37,34.43-17.6,0,0,.52,17.08-1.29,20.45s-28,10.61-29.51,10.61S335.7,102.73,335.18,102s-40.39-30.29-40.39-30.29l-23.55-9.06-47.38.26-26.14,9.32L173.9,93.41l-9.84,18.38L162.25,118l-16.83-11.14-6.73-19.93-.52-8.8s9.58,10.1,30,3.62C168.2,81.76,140.5,76.59,147.24,40.6Z"/><path class="cls-8" d="M442.61,416.92c-.09-2.26-2.54-55.43-38.56-73.45-26.24-13.12-62.9-49.48-65.64-52.21-1.42-2.15-14.42-21.92-17.73-31.38-1.82-5.2-4-8-6.73-8.51a4.41,4.41,0,0,0-1.44-.05l-1.27-14.54c.93-1.47,1.63-2.69,2.08-3.57,1.05-2.11,2.19-8.55,3.29-16.86a7.1,7.1,0,0,0,3.65,1h0c5.68,0,10.65-6.66,14.86-12.88,5.61-8.26,5.8-33.63.31-42.41-1.94-3.1-4.41-5-7.35-5.59a9.64,9.64,0,0,0-2.24-.17c0-.13.05-.26.07-.35.23-1.28.72-4.86,1.33-9.65,8,3.07,30.52,11,49,11,6.71,0,12.89-1.05,17.65-3.75,19.41-11,25.07-20.27,23.3-38-1.46-14.54-22.66-33.63-28-38.23.9-4.39.73-16.45-18.43-36.91C346.3,14.28,328.63.86,300,.09c-11.54-.31-21,.24-31,.83-15.33.89-31.18,1.81-57-.05-45.56-3.27-65,24.81-66.56,43.29-.31,3.79-1.88,8.56-3.53,13.61-6.36,19.41-15,45.93,24.78,67.72l3,30a13.51,13.51,0,0,0-10.83,6.57c-5.49,8.78-5.3,34.15.3,42.41,4.22,6.22,9.19,12.85,14.86,12.88h0a7,7,0,0,0,3.18-.76c.62,7.13,1.21,12.92,1.7,15.94.53,3.36,3.19,8.18,7.23,13.57h-.27l-.41,19.57c-3.25,3.68-7.18,11.58-8.13,28.5-.19,3.35-.36,6.37-.51,9.08-8.65,5.94-52.46,35.82-71.77,45.94-2.06,1.08-4.05,2-6,2.9C80.71,360.7,67.38,366.93,31.67,481a67.94,67.94,0,0,0-22.33,27.2c-24.49,53,6.45,72.53,10.51,74.81,2.25,2.36,17.08,17.26,34,17.72h.79c7.16,0,13.65-2.69,19.33-7.94,2.39,0,4.78.06,7.16.06,4.32,0,10.63-.29,14.87-.39l5.43,49.25,152.22.26-.37-.56c11.07,2.8,17.8-1.69,20.8-4.59,13.78,12.91,29.44,8.19,33.88,6.46l9.34,5.6.52.23a45.73,45.73,0,0,0,13.46,2.23c17.71,0,32-13.53,53.4-47.75,25.8-41.28,56.6-180.19,57.9-186.08l.06-.29ZM314.31,257.18a18.48,18.48,0,0,1,2,4.24c3.3,9.43,15,27.48,17.79,31.73-2.17,7.34-19.36,56.1-92.89,63.54a50.23,50.23,0,0,0-7.29,1.19c3.41-26.73,13.17-29.92,34.88-37,5.71-1.86,12.18-4,19.49-6.82C320.77,301.43,316.62,268,314.31,257.18Zm-2.94,15.17c-.07,12.86-4.51,29.49-24.8,37.38-7.19,2.8-13.59,4.88-19.24,6.72-22.85,7.45-34.73,11.34-38.3,42.84-6.18,2.12-13.18,5.95-17.14,12.8-1.35-1.52-3.06-3.75-3.06-3.75.09-.8,2.21-20.4.13-36.54-1.07-8.25-6-13.81-10.67-19.18-4.35-5-8.49-9.69-10-16.49l2.19-44.7c14.43,16.83,39.27,36.4,56.54,36.4,22.53,0,48.14-28.59,60.06-45ZM248,252.1c-17.08,0-23.49-5-23.49-5,1.17,1.17,4.49,5.2,10.21,6.81l-5.4,6.67c-4.49-.65-9.08-3.25-13.55-7,.9-2.34,3.87-9.12,9.34-13.15,6.56-4.84,32.8-4.57,37.39-2.81,2.87,1.1,8.37,7.87,11.84,12.76a110.09,110.09,0,0,1-10.52,10.57,29.11,29.11,0,0,1-2.49-6.65l-.36-1.44a16.15,16.15,0,0,0,6.84-5S263.34,252.1,248,252.1Zm79.21-91a7,7,0,0,1,4.31,3.49c4.84,7.75,4,31.11-.21,37.33-2.2,3.23-7.34,10.81-11,10.83-.36,0-1.48,0-2.95-1.93.32-2.67.63-5.46.94-8.29l-.05.64a6.77,6.77,0,0,0,3.91-3.59,3.65,3.65,0,0,1-3.56.07c1.53-14.5,2.81-29.82,3.43-37.66l.13.19A7.46,7.46,0,0,1,327.21,161.05ZM165.47,106.49a33.58,33.58,0,0,1-13,3.1,45,45,0,0,1-4.71-5.45c5.54,2,14.16,1.67,18,1.37C165.68,105.87,165.56,106.2,165.47,106.49Zm-7.36-13.21c-8,.71-13.71-4.85-17-9.35-.06-8.63,2.68-17.05,5.2-24.71,1.74-5.32,3.38-10.34,3.74-14.67,1.4-16.71,19.34-42.08,61.59-39,26.1,1.88,42.11,1,57.59.05,9.94-.58,19.33-1.13,30.66-.82,26.95.73,43.87,13.66,67.48,38.87,21.18,22.62,17.08,33.48,17.06,33.53l-.76,1.64,1.39,1.15c.22.18,18.89,15.73,25.38,29.23-1.77,13.21-16.25,18-32.57,18.93-8.67.49-19.81-6-29.17-13.09,11.44,3.53,27.86,7.29,36.16,2.74,12-6.6,14-15.54,14-15.54S388.38,114.64,381,114.64s-37.67-8.54-42.72-16.7c0,0,32.23-.38,40.78-14,0,0-14,7.38-27.57,6.22-8.32-.72-24.2-6.23-35.27-10.4A104.31,104.31,0,0,0,283.9,64.43c-.56-.78-.54-1.65.54-2.6,4.14-3.62,3.62-22.78,3.62-22.78s-3.62,5.69-7.76,11.39c-2.75,3.78-10.73,7.77-16.25,10a151.72,151.72,0,0,0-21.73-1c-35.46.87-55.2,15.16-65.85,28A50.44,50.44,0,0,1,158.11,93.28Zm16,119.42c-3.69,0-8.83-7.6-11-10.83-4.22-6.22-5.05-29.58-.21-37.33a9.42,9.42,0,0,1,10.33-4.19c.57,8.71,1.62,24.44,2.74,39.21h0a3.64,3.64,0,0,1-3.62,0,6.73,6.73,0,0,0,3.91,3.59c.21,2.72.42,5.39.63,7.95C175.46,212.7,174.46,212.73,174.08,212.7Zm7-66.38-.08.3c-3.73,2.3-6.14,4.07-7,4.74l-4.32-42.72c1.26-4.2,14.58-43.06,72.77-44.48a139.86,139.86,0,0,1,25.93,1.7c16.07,4.47,37.12,13.24,40.8,29,2.95,12.62,1.55,36.5-.78,36.5s-22.18-5.75-61.31-4a116.71,116.71,0,0,0-27.83,3.3,134.32,134.32,0,0,0-37.86,15.7Zm2.11,59.55c-2.14-5.82-1.65-27.18-1.47-35.23,0-1.66.06-2.91.06-3.58,0-2.82,2.05-12.12,3.29-17.42a130.35,130.35,0,0,1,35.25-14.42c30-7.26,58.5-2.48,85,14.2,1.66,6.09,9.22,36,3.23,53-3.2,9.06-13.35,23.14-23.32,35.31-11.89-11.37-13.32-14.21-37.82-14-24.17.25-30.9.51-43.06,15.66C192.9,225.55,185.26,211.45,183.2,205.87Zm-1.15,88.56a96.64,96.64,0,0,1,1-9.64,74,74,0,0,0,0,7.57c.6,10.69,6.5,17.4,11.7,23.33,4.46,5.08,8.66,9.87,9.55,16.7,1.48,11.48.78,24.74.31,31a299.06,299.06,0,0,1-24.14-37C180.55,324.39,180.78,316.79,182.05,294.43Zm-118.93,111c16.35-39,26-43.52,38-49.1,2-.92,4-1.88,6.16-3,18.14-9.5,56.23-35.27,69.31-44.21-.74,14.35-.75,17.64-.75,17.81v.58l.27.51c1.09,2.06,27,50.48,52.21,64.12,19.61,10.62,34.51,19.72,39.75,23-4.8,7.37-20,33.94-23.16,78.9-4.55-2.05-10.71-4.83-17.75-8-9.53-5.91-20.85-13.51-25.3-18.79-8.29-9.84-17.09-14-29.51-17.35,0,0,9.57,6.22,12.16,10.1s-21.74-5.44-31.84-13.2-28.47-1.56-28.47-1.56-11.65-7.5-14.24-14.75-1.56-24.08-1.56-24.08S104.26,423,106.85,432c0,0-10.1-10.87-11.91-23s-2.33-28.48-2.33-28.48S89.67,396.79,91,410.91a41.44,41.44,0,0,1-2.08-7,53.08,53.08,0,0,1-.68-5.38,38.83,38.83,0,0,1-.1-4.18c0-1.17.14-2.07.16-2.7l.08-.95s0,.33-.13.95-.26,1.52-.31,2.69a40.69,40.69,0,0,0-.13,4.21,51.44,51.44,0,0,0,.39,5.46,115.22,115.22,0,0,0,2.6,13.45c.57,2.43,1.18,4.93,1.68,7.47.27,1.27.47,2.56.65,3.83l.2,1.9.1,2a25.25,25.25,0,0,0,1,5.77c-2.19-4-3.95-6.21-2.8-.48.26,1.3,2.84,15.28,1.29,18.13S68,459.72,60.51,463.6C54.32,466.81,57.46,427.55,63.12,405.42ZM40.06,495.57s-22.91,8.55-26,43.49c0,0-5.59-10.49-1-27.79.17-.38.31-.74.49-1.13,18-38.92,62-41.7,84-40.46,1.51,1.6,3.65,4.18,1.93,6.48-2.33,3.1-26,7-42.32,19.8s-29.13,28-31.84,57.47C25.31,553.43,13.66,515.38,40.06,495.57ZM73.6,588.13C69.26,586,35.73,568.22,48.37,528,59.21,493.47,87,487.72,97.73,486.8l0,.06,23.72-1.18a430.09,430.09,0,0,0,67.4,92.94C174.16,581.18,125.25,588.93,73.6,588.13Zm161.76,25.69c-10.07-7.16-66.91-50-110.53-131.64l-.7-1.3-17.45.87c6.85-9.31,25.86-31.91,44.19-24.28,23.13,9.64,91.18,40.34,99.53,44.12C253.49,509.41,276.28,572,235.36,613.82Zm78.33,5.11c-7.51,8.8-26.92,7-24.33-6.22,1.88-9.59.51-27.81-.38-37.06,0-2,.2-3.92.12-5.68s-.06-3.5-.09-5-.21-2.77-.29-3.83l-.27-3.33s0,1.22.07,3.34c0,1.06.07,2.35.06,3.82s-.13,3.14-.21,5c-3.05,31.53-17.13,36.55-23.09,34.48s-5.69-8.28-5.69-8.28c5.9-13.73,5.61-32.18,4.51-44.31a147.94,147.94,0,0,0-8.4-49.36c5,.7,13.86,3,17.09,10.59l.08.29.4,1.58c.34,1.38.8,3.37,1.26,5.79a148.17,148.17,0,0,1,2.33,17.93c.13,1.65.2,3.3.25,4.92s.08,3.22.08,4.77,0,3-.09,4.47-.1,2.77-.21,4-.19,2.38-.27,3.38-.23,1.88-.32,2.6c-.17,1.45-.28,2.27-.28,2.27s.18-.81.48-2.23c.15-.72.34-1.58.55-2.58s.36-2.13.56-3.36.41-2.57.57-4,.37-2.93.48-4.49.29-3.18.35-4.82.16-3.32.18-5a151,151,0,0,0-.78-18.45c-.25-2.51-.54-4.61-.76-6.08-.11-.67-.2-1.19-.26-1.58a6.57,6.57,0,0,1,3.3-3.36,8.63,8.63,0,0,1,4-.63c17.41,3,36.25,51.23,37.42,82.81C321.07,602.11,318.09,613.77,313.69,618.93Zm50.48-29c-11.39,18.12-29,15.79-29,15.79,4.81-27-12.49-55.93-19.33-66.1a172.19,172.19,0,0,0-16.39-27.85l22.77,14.48s-10-12.38-19.28-17.54c-5.5-3-13.79-4.37-16.61-4.74a6.86,6.86,0,0,1-1.61-1.79c-1.25-2.1-1-5,.65-8.6,4-8.54,13.67-17.51,23-26.19,6.95-6.45,13.53-12.54,17.19-18,2-3,4.51-7.84,7.69-14,9.64-18.61,22.47-44.84,38.39-57.08l4-3.86c-19.9,7.46-35.91,38.35-46.5,58.79q-1.54,3-2.92,5.6c1.28-8.31,4.37-23.57,10.89-33.34,9.32-14,18.25-21.75,18.25-21.75s-24.08,19.42-28.35,33.4-9.7,27.57-12.81,30.28,4.66-22.91,4.66-22.91-9.71,23.3-13.59,27.57-33,23.3-41.55,21.75,5.3-50.17,11-60l-2.11-1.35c-.18-.11-17.44-11.07-42.08-24.42-5.09-2.75-10.27-7.14-15.29-12.32,3.33-6.95,10.68-10.59,16.78-12.46,0,0,9.42-1.91,9.54-1.91,43-4.36,67.15-22.54,79.83-37a85.1,85.1,0,0,0,16.3-27.2c9.35,9.14,40.4,38.6,64.26,50.53,32.25,16.13,35.74,64.95,36,69.17C417,505.15,375.56,571.81,364.17,589.93Z"/><circle class="cls-8" cx="170.27" cy="416.75" r="10.48"/><circle class="cls-8" cx="242.11" cy="425.29" r="11.65"/><path class="cls-8" d="M228,158.76a40.86,40.86,0,0,1,10.75,18.59s-.67-15.23-6.72-21.73-29.78-6.71-34.71-1.34-4.93,9.85-4.93,9.85,4.93-7.16,10.53-7.16S225.75,156.3,228,158.76Z"/><path class="cls-8" d="M209.18,169.06a7.82,7.82,0,0,0,2.24,5.54l7,0c2-2.19,1.51-5.94,1.51-5.94a11.65,11.65,0,0,1,5.6,5.83l4.25-.45-.89-1.12A17.08,17.08,0,0,0,214.55,165c-6,0-12.09,5.38-13.66,6.5a11.41,11.41,0,0,1-3.58,1.56l5.15.67C206.49,169.51,209.18,169.06,209.18,169.06Z"/><path class="cls-8" d="M223.65,180.26c-7.39,1.93-21.25-.08-21.25-.08C214.08,188.07,223.65,180.26,223.65,180.26Z"/><path class="cls-8" d="M234.6,210.49c-4.82.34-3.7,3.48-3.7,3.48s.23-1.68,2.8-1.91,2,3,6.61,1.35C240.31,213.41,239.41,210.16,234.6,210.49Z"/><path class="cls-8" d="M230.91,202c.73,3.1,4.81,3.6,4.81,3.6-6.27-3.7,1.79-15.34,1.79-15.34-4.4,4.36-6.21,7.49-6.62,9.74-2.26.88-6.2,2.92-8,6.94-2.69,5.82,0,9.3,3.47,9.18,0,0-5-4.36-.45-10.3C228,203,229.72,202.12,230.91,202Z"/><path class="cls-8" d="M288.24,157c5.6,0,10.52,7.16,10.52,7.16s0-4.47-4.92-9.85-28.67-5.15-34.72,1.34-6.72,21.73-6.72,21.73a40.86,40.86,0,0,1,10.75-18.59C265.39,156.3,282.64,157,288.24,157Z"/><path class="cls-8" d="M276.59,165a17.05,17.05,0,0,0-14.33,7.84l-.9,1.12,4.26.45a11.6,11.6,0,0,1,5.6-5.83s-.51,3.75,1.51,5.94l7,0a7.86,7.86,0,0,0,2.24-5.54s2.68.45,6.71,4.7l5.16-.67a11.42,11.42,0,0,1-3.59-1.56C288.68,170.41,282.64,165,276.59,165Z"/><path class="cls-8" d="M267.49,180.26s9.58,7.81,21.25-.08C288.74,180.18,274.88,182.19,267.49,180.26Z"/><path class="cls-8" d="M257.44,212.06c2.58.23,2.8,1.91,2.8,1.91s1.12-3.14-3.69-3.48-5.72,2.92-5.72,2.92C255.43,215.09,254.87,211.84,257.44,212.06Z"/><path class="cls-8" d="M260.26,200c-.42-2.25-2.23-5.38-6.63-9.74,0,0,8.07,11.64,1.8,15.34,0,0,4.08-.5,4.81-3.6,1.18.15,2.87,1,5,3.82,4.59,5.94-.45,10.3-.45,10.3,3.47.12,6.16-3.36,3.47-9.18C266.45,202.89,262.52,200.85,260.26,200Z"/><path class="cls-8" d="M248.84,242.52c-2.61,1.24-3,0-4.53-.38s-16.56.77-19.54,3c0,0,17.86-1.16,19-.9s2.2,1.55,2.71,1.42a21.73,21.73,0,0,0,2.46-1.55c.91-.52,16.57.9,17.74,1S253.5,240.32,248.84,242.52Z"/><path class="cls-8" d="M174.14,194s-.56-4.64-2.67-7.11-.21-2.46.28-6.76-3.45-14.57-9.43-7.25c0,0,5.63,0,5.63,3.95s-.28,5.91,1.41,8.16.56,7.61,1.4,8.45S174.14,194,174.14,194Z"/><path class="cls-8" d="M322.92,186.88c-2.11,2.47-2.68,7.11-2.68,7.11s2.54.28,3.38-.56-.28-6.2,1.41-8.45,1.41-4.22,1.41-8.16,5.63-3.95,5.63-3.95c-6-7.32-9.93,3-9.43,7.25S325,184.42,322.92,186.88Z"/></g></g></g></svg>