<svg xmlns="http://www.w3.org/2000/svg" xmlns:xlink="http://www.w3.org/1999/xlink" viewBox="0 0 379.23 435.42"><defs><style>.cls-1,.cls-11,.cls-115,.cls-116,.cls-121,.cls-123,.cls-125,.cls-127,.cls-17,.cls-21,.cls-33,.cls-37,.cls-52,.cls-61,.cls-65,.cls-68,.cls-78,.cls-80,.cls-86,.cls-88,.cls-96{fill:none;}.cls-2{isolation:isolate;}.cls-102,.cls-104,.cls-106,.cls-108,.cls-110,.cls-112,.cls-114,.cls-118,.cls-119,.cls-122,.cls-124,.cls-3,.cls-72,.cls-84,.cls-92{opacity:0.3;}.cls-100,.cls-101,.cls-103,.cls-105,.cls-107,.cls-109,.cls-111,.cls-113,.cls-117,.cls-122,.cls-124,.cls-126,.cls-17,.cls-18,.cls-21,.cls-22,.cls-27,.cls-3,.cls-30,.cls-33,.cls-34,.cls-37,.cls-38,.cls-41,.cls-45,.cls-48,.cls-53,.cls-58,.cls-67,.cls-7,.cls-71,.cls-76,.cls-77,.cls-79,.cls-82,.cls-83,.cls-91,.cls-95,.cls-97,.cls-98{mix-blend-mode:multiply;}.cls-4{fill:#f2c1ae;}.cls-5{opacity:0.85;}.cls-6{fill:#abdfff;}.cls-117,.cls-7,.cls-71,.cls-91{opacity:0.35;}.cls-8{fill:#ffc878;}.cls-53,.cls-61,.cls-76,.cls-79,.cls-9,.cls-95,.cls-97,.cls-98{opacity:0.55;}.cls-10{fill:#fea700;}.cls-11,.cls-33,.cls-37{stroke:#fea700;}.cls-11,.cls-115,.cls-116,.cls-121,.cls-123,.cls-125,.cls-127,.cls-17,.cls-21,.cls-33,.cls-37,.cls-52,.cls-61,.cls-65,.cls-68,.cls-78,.cls-80,.cls-86,.cls-88,.cls-96{stroke-linecap:round;}.cls-11,.cls-115,.cls-116,.cls-121,.cls-123,.cls-125,.cls-127,.cls-52,.cls-65,.cls-68,.cls-78,.cls-80,.cls-86,.cls-88,.cls-96{stroke-linejoin:round;}.cls-11{stroke-width:1px;}.cls-12{fill:#059c48;}.cls-13{clip-path:url(#clip-path);}.cls-14{fill:#d78e00;}.cls-15{clip-path:url(#clip-path-2);}.cls-126,.cls-16,.cls-18,.cls-19,.cls-22,.cls-23,.cls-27,.cls-28,.cls-30,.cls-31,.cls-34,.cls-35,.cls-38,.cls-39,.cls-41,.cls-42,.cls-45,.cls-46,.cls-48,.cls-49,.cls-58{opacity:0.2;}.cls-17,.cls-21{stroke:#d78e00;}.cls-17,.cls-21,.cls-33,.cls-37,.cls-61{stroke-miterlimit:10;}.cls-17,.cls-37{stroke-width:2.34px;}.cls-18{fill:url(#linear-gradient);}.cls-19{fill:url(#linear-gradient-2);}.cls-20{clip-path:url(#clip-path-3);}.cls-21,.cls-33{stroke-width:1.87px;}.cls-22{fill:url(#linear-gradient-3);}.cls-23{fill:url(#linear-gradient-4);}.cls-24{fill:#cb7000;}.cls-25{clip-path:url(#clip-path-4);}.cls-26,.cls-67{opacity:0.4;}.cls-27{fill:url(#linear-gradient-5);}.cls-28{fill:url(#linear-gradient-6);}.cls-29{clip-path:url(#clip-path-5);}.cls-30{fill:url(#linear-gradient-7);}.cls-31{fill:url(#linear-gradient-8);}.cls-32{clip-path:url(#clip-path-6);}.cls-34{fill:url(#linear-gradient-9);}.cls-35{fill:url(#linear-gradient-10);}.cls-36{clip-path:url(#clip-path-7);}.cls-38{fill:url(#linear-gradient-11);}.cls-39{fill:url(#linear-gradient-12);}.cls-40{clip-path:url(#clip-path-8);}.cls-41{fill:url(#linear-gradient-13);}.cls-42{fill:url(#linear-gradient-14);}.cls-43{fill:#f28500;}.cls-44{clip-path:url(#clip-path-9);}.cls-45{fill:url(#linear-gradient-15);}.cls-46{fill:url(#linear-gradient-16);}.cls-47{clip-path:url(#clip-path-10);}.cls-48{fill:url(#linear-gradient-17);}.cls-49{fill:url(#linear-gradient-18);}.cls-50{opacity:0.15;}.cls-51,.cls-74{opacity:0.5;}.cls-51{mix-blend-mode:screen;}.cls-127,.cls-52{stroke:#8fcaff;}.cls-52{stroke-width:2.16px;}.cls-54{opacity:0.7;}.cls-55{fill:#4996ea;}.cls-56{fill:#3b6fd9;}.cls-57{fill:#3f82d9;}.cls-59{fill:#fffcfa;}.cls-60{fill:#f7a96d;}.cls-61{stroke:#cc8446;stroke-width:0.52px;}.cls-62{clip-path:url(#clip-path-11);}.cls-63{fill:#89952d;}.cls-64{fill:#026a30;}.cls-65,.cls-68{stroke:#6d871e;}.cls-65{stroke-width:0.45px;}.cls-66{fill:#4d8222;}.cls-68{stroke-width:0.45px;}.cls-69{fill:#c02300;}.cls-70{fill:#9c1904;}.cls-71{fill:url(#linear-gradient-19);}.cls-72{fill:url(#linear-gradient-20);}.cls-73{fill:#ca4c52;}.cls-75{fill:#b8256c;}.cls-76{fill:url(#linear-gradient-21);}.cls-78,.cls-80{stroke:#b8256c;}.cls-78,.cls-96{stroke-width:0.83px;}.cls-79{fill:url(#linear-gradient-22);}.cls-80{stroke-width:0.64px;}.cls-81,.cls-82{fill:#563694;}.cls-101,.cls-103,.cls-105,.cls-107,.cls-109,.cls-111,.cls-113,.cls-83{opacity:0.45;}.cls-83{fill:url(#linear-gradient-23);}.cls-84{fill:url(#linear-gradient-24);}.cls-85{fill:#b8c73f;}.cls-115,.cls-116,.cls-86,.cls-88{stroke:#97b92c;}.cls-86{stroke-width:0.53px;}.cls-87{fill:#6db432;}.cls-88{stroke-width:0.53px;}.cls-89{fill:#f22c00;}.cls-90{fill:#ce2105;}.cls-91{fill:url(#linear-gradient-25);}.cls-92{fill:url(#linear-gradient-26);}.cls-93{fill:#fc636a;}.cls-94{fill:#ea338b;}.cls-95{fill:url(#linear-gradient-27);}.cls-96{stroke:#ea338b;}.cls-97{fill:url(#linear-gradient-28);}.cls-98{fill:url(#linear-gradient-29);}.cls-100,.cls-99{fill:#754bc6;}.cls-101{fill:url(#linear-gradient-30);}.cls-102{fill:url(#linear-gradient-31);}.cls-103{fill:url(#linear-gradient-32);}.cls-104{fill:url(#linear-gradient-33);}.cls-105{fill:url(#linear-gradient-34);}.cls-106{fill:url(#linear-gradient-35);}.cls-107{fill:url(#linear-gradient-36);}.cls-108{fill:url(#linear-gradient-37);}.cls-109{fill:url(#linear-gradient-38);}.cls-110{fill:url(#linear-gradient-39);}.cls-111{fill:url(#linear-gradient-40);}.cls-112{fill:url(#linear-gradient-41);}.cls-113{fill:url(#linear-gradient-42);}.cls-114{fill:url(#linear-gradient-43);}.cls-115{stroke-width:0.59px;}.cls-116{stroke-width:0.59px;}.cls-117{fill:url(#linear-gradient-44);}.cls-118{fill:url(#linear-gradient-45);}.cls-120{fill:#035929;}.cls-121,.cls-123{stroke:#0b7a38;}.cls-121{stroke-width:1.81px;}.cls-122{fill:url(#linear-gradient-46);}.cls-123{stroke-width:1.94px;}.cls-124{fill:url(#linear-gradient-47);}.cls-125{stroke:#059c48;stroke-width:2.17px;}.cls-126{fill:url(#linear-gradient-48);}.cls-127{stroke-width:1.82px;}.cls-128{fill:#fff;}</style><clipPath id="clip-path"><path class="cls-1" d="M34.09,308.93H220V415.7H70.41a29.82,29.82,0,0,1-29.72-27.34Z"/></clipPath><clipPath id="clip-path-2"><path class="cls-1" d="M59.3,332.81c-4.84-2.47-9.72-5.18-13.22-9.22s-5.37-9.72-3.35-14.36c1.87-4.31,6.69-6.88,11.61-7.55s10,.27,14.93,1.25c18.84,3.73,37.6,8.28,55.66,14.93,7.94,2.92,17.24,6.95,20.48,15.09,2.31,5.8,1.88,13.2-3.38,17-12.93,9.4-37,.76-50.84-3.8A227.88,227.88,0,0,1,59.3,332.81Z"/></clipPath><linearGradient id="linear-gradient" x1="1412.67" y1="2225.62" x2="1430.76" y2="2225.62" gradientTransform="matrix(0.35, -0.94, -0.94, -0.35, 1687.72, 2423.86)" gradientUnits="userSpaceOnUse"><stop offset="0" stop-color="#cb7000"/><stop offset="0.12" stop-color="#cb7000" stop-opacity="0.88"/><stop offset="0.41" stop-color="#cb7000" stop-opacity="0.63"/><stop offset="0.67" stop-color="#cb7000" stop-opacity="0.45"/><stop offset="0.87" stop-color="#cb7000" stop-opacity="0.34"/><stop offset="1" stop-color="#cb7000" stop-opacity="0.3"/></linearGradient><linearGradient id="linear-gradient-2" x1="1392.33" y1="2209.16" x2="1410.03" y2="2209.16" gradientTransform="matrix(0.35, -0.94, -0.94, -0.35, 1687.72, 2423.86)" gradientUnits="userSpaceOnUse"><stop offset="0" stop-color="#d18e61"/><stop offset="0.16" stop-color="#d18e61" stop-opacity="0.97"/><stop offset="0.39" stop-color="#d18e61" stop-opacity="0.88"/><stop offset="0.67" stop-color="#d18e61" stop-opacity="0.73"/><stop offset="0.97" stop-color="#d18e61" stop-opacity="0.52"/><stop offset="1" stop-color="#d18e61" stop-opacity="0.5"/></linearGradient><clipPath id="clip-path-3"><path class="cls-1" d="M125.91,404.4c-3.92,1.89-8,3.69-12.29,4s-8.8-1.29-10.79-4.82c-1.84-3.28-1.14-7.6.82-11.06s5-6.25,8-8.93c11.51-10.22,23.51-20,36.5-28.28,5.71-3.65,12.78-7.64,19.55-5.76,4.82,1.33,9.34,5.19,9.23,10.41-.27,12.8-17.44,24-27.06,30.6A183.26,183.26,0,0,1,125.91,404.4Z"/></clipPath><linearGradient id="linear-gradient-3" x1="1299.44" y1="945.61" x2="1313.93" y2="945.61" gradientTransform="matrix(-0.54, -0.84, -0.84, 0.54, 1632.19, 969.01)" xlink:href="#linear-gradient"/><linearGradient id="linear-gradient-4" x1="1283.14" y1="932.42" x2="1297.32" y2="932.42" gradientTransform="matrix(-0.54, -0.84, -0.84, 0.54, 1632.19, 969.01)" xlink:href="#linear-gradient-2"/><clipPath id="clip-path-4"><path class="cls-1" d="M142.48,381.38c-5.36.9-10.9,1.63-16.12.47s-10.09-4.61-11.24-9.54c-1.07-4.57,1.28-9.51,4.83-13s8.18-5.74,12.73-7.9c17.36-8.22,35.14-15.74,53.61-21.16,8.12-2.38,18-4.69,25.44-.08,5.31,3.28,9.37,9.48,7.42,15.7-4.79,15.24-29.27,22.65-43.1,27.23A226.86,226.86,0,0,1,142.48,381.38Z"/></clipPath><linearGradient id="linear-gradient-5" x1="1414.64" y1="1284.29" x2="1432.72" y2="1284.29" gradientTransform="matrix(-0.28, -0.96, -0.96, 0.28, 1792.72, 1355.54)" xlink:href="#linear-gradient"/><linearGradient id="linear-gradient-6" x1="1394.29" y1="1267.83" x2="1411.99" y2="1267.83" gradientTransform="matrix(-0.28, -0.96, -0.96, 0.28, 1792.72, 1355.54)" xlink:href="#linear-gradient-2"/><clipPath id="clip-path-5"><path class="cls-1" d="M129.82,347.9c5.39.68,10.91,1.58,15.57,4.2s8.33,7.33,8,12.38c-.3,4.69-4,8.73-8.37,11s-9.49,3.13-14.47,3.88c-19,2.87-38.19,4.93-57.43,4.79-8.46-.07-18.58-.7-24.39-7.27-4.13-4.67-6.23-11.78-2.57-17.17,9-13.22,34.56-13.24,49.12-13.63A227.61,227.61,0,0,1,129.82,347.9Z"/></clipPath><linearGradient id="linear-gradient-7" x1="-1304.22" y1="1627.22" x2="-1286.13" y2="1627.22" gradientTransform="matrix(-0.01, 1, 1, 0.01, -1539.22, 1654.02)" xlink:href="#linear-gradient"/><linearGradient id="linear-gradient-8" x1="-1324.56" y1="1610.75" x2="-1306.86" y2="1610.75" gradientTransform="matrix(-0.01, 1, 1, 0.01, -1539.22, 1654.02)" xlink:href="#linear-gradient-2"/><clipPath id="clip-path-6"><path class="cls-1" d="M40.57,329.2c-1.86,3.93-3.63,8.05-3.87,12.32s1.36,8.79,4.91,10.75c3.3,1.82,7.61,1.08,11-.91s6.21-5.05,8.86-8.1c10.12-11.59,19.79-23.67,28-36.73,3.61-5.74,7.53-12.84,5.6-19.6-1.37-4.8-5.27-9.29-10.49-9.13-12.8.37-23.83,17.64-30.37,27.3A181.71,181.71,0,0,0,40.57,329.2Z"/></clipPath><linearGradient id="linear-gradient-9" x1="-560.52" y1="541.78" x2="-546.04" y2="541.78" gradientTransform="matrix(0.85, 0.53, -0.53, 0.85, 827.77, 154.74)" gradientUnits="userSpaceOnUse"><stop offset="0" stop-color="#f28500"/><stop offset="0.23" stop-color="#f28500" stop-opacity="0.79"/><stop offset="0.48" stop-color="#f28500" stop-opacity="0.58"/><stop offset="0.71" stop-color="#f28500" stop-opacity="0.43"/><stop offset="0.89" stop-color="#f28500" stop-opacity="0.33"/><stop offset="1" stop-color="#f28500" stop-opacity="0.3"/></linearGradient><linearGradient id="linear-gradient-10" x1="-576.83" y1="528.59" x2="-562.65" y2="528.59" gradientTransform="matrix(0.85, 0.53, -0.53, 0.85, 827.77, 154.74)" gradientUnits="userSpaceOnUse"><stop offset="0" stop-color="#f8e6da"/><stop offset="0.14" stop-color="#f8e6da" stop-opacity="0.97"/><stop offset="0.35" stop-color="#f8e6da" stop-opacity="0.9"/><stop offset="0.59" stop-color="#f8e6da" stop-opacity="0.77"/><stop offset="0.86" stop-color="#f8e6da" stop-opacity="0.6"/><stop offset="1" stop-color="#f8e6da" stop-opacity="0.5"/></linearGradient><clipPath id="clip-path-7"><path class="cls-1" d="M69.44,382.1c-4.84,2.47-9.72,5.18-13.22,9.22s-5.36,9.72-3.35,14.36c1.87,4.31,6.69,6.88,11.61,7.55s10-.27,14.93-1.24c18.84-3.74,37.6-8.29,55.66-14.94,7.94-2.92,17.24-6.95,20.49-15.09,2.31-5.8,1.88-13.2-3.39-17-12.93-9.4-37-.76-50.84,3.8A228.38,228.38,0,0,0,69.44,382.1Z"/></clipPath><linearGradient id="linear-gradient-11" x1="-1175.09" y1="1254.5" x2="-1157.01" y2="1254.5" gradientTransform="translate(1687.72 1054.94) rotate(69.64)" xlink:href="#linear-gradient-9"/><linearGradient id="linear-gradient-12" x1="-1195.44" y1="1238.04" x2="-1177.74" y2="1238.04" gradientTransform="translate(1687.72 1054.94) rotate(69.64)" xlink:href="#linear-gradient-10"/><clipPath id="clip-path-8"><path class="cls-1" d="M168.31,333.63c-3.92-1.89-8-3.69-12.29-4s-8.8,1.29-10.78,4.82c-1.85,3.28-1.15,7.6.81,11.06s5,6.25,8,8.93c11.52,10.22,23.51,20,36.5,28.28,5.71,3.65,12.79,7.64,19.56,5.76,4.81-1.33,9.33-5.19,9.22-10.41-.27-12.8-17.44-24-27.06-30.6A182.6,182.6,0,0,0,168.31,333.63Z"/></clipPath><linearGradient id="linear-gradient-13" x1="-1036.61" y1="2379.76" x2="-1022.12" y2="2379.76" gradientTransform="matrix(-0.54, 0.84, -0.84, -0.54, 1632.19, 2509.79)" xlink:href="#linear-gradient-9"/><linearGradient id="linear-gradient-14" x1="-1052.91" y1="2366.57" x2="-1038.73" y2="2366.57" gradientTransform="matrix(-0.54, 0.84, -0.84, -0.54, 1632.19, 2509.79)" xlink:href="#linear-gradient-10"/><clipPath id="clip-path-9"><path class="cls-1" d="M129.27,379.06c-5.4.63-10.92,1.47-15.6,4s-8.41,7.25-8.14,12.3c.25,4.69,3.88,8.77,8.26,11.11s9.45,3.23,14.43,4c19,3.06,38.13,5.31,57.38,5.37,8.46,0,18.58-.52,24.45-7,4.19-4.63,6.36-11.73,2.75-17.15-8.85-13.3-34.43-13.59-49-14.12A226.57,226.57,0,0,0,129.27,379.06Z"/></clipPath><linearGradient id="linear-gradient-15" x1="-1256.25" y1="1672.33" x2="-1238.16" y2="1672.33" gradientTransform="translate(1830.23 1654.06) rotate(90)" xlink:href="#linear-gradient-9"/><linearGradient id="linear-gradient-16" x1="-1276.59" y1="1655.87" x2="-1258.89" y2="1655.87" gradientTransform="translate(1830.23 1654.06) rotate(90)" xlink:href="#linear-gradient-10"/><clipPath id="clip-path-10"><path class="cls-1" d="M134.05,363.24c5.39-.68,10.91-1.58,15.57-4.19s8.33-7.33,8-12.38c-.3-4.69-4-8.74-8.37-11s-9.49-3.13-14.47-3.89c-19-2.86-38.19-4.92-57.44-4.78-8.46.06-18.57.7-24.38,7.27-4.13,4.67-6.23,11.78-2.57,17.16,9,13.22,34.56,13.25,49.12,13.64A226.33,226.33,0,0,0,134.05,363.24Z"/></clipPath><linearGradient id="linear-gradient-17" x1="1463.38" y1="1659.4" x2="1481.47" y2="1659.4" gradientTransform="translate(-1539.22 1824.77) rotate(-90.58)" xlink:href="#linear-gradient-9"/><linearGradient id="linear-gradient-18" x1="1443.03" y1="1642.94" x2="1460.73" y2="1642.94" gradientTransform="translate(-1539.22 1824.77) rotate(-90.58)" xlink:href="#linear-gradient-10"/><clipPath id="clip-path-11"><path class="cls-1" d="M50.45,170H208.86v88.92H96.94a40.79,40.79,0,0,1-40.53-36.21Z"/></clipPath><linearGradient id="linear-gradient-19" x1="1373.31" y1="1079.33" x2="1405.9" y2="1079.33" gradientTransform="translate(-1358.76 1078.05) rotate(-66.53)" gradientUnits="userSpaceOnUse"><stop offset="0" stop-color="#9c1904"/><stop offset="0.03" stop-color="#9c1904" stop-opacity="0.98"/><stop offset="0.46" stop-color="#9c1904" stop-opacity="0.72"/><stop offset="0.8" stop-color="#9c1904" stop-opacity="0.56"/><stop offset="1" stop-color="#9c1904" stop-opacity="0.5"/></linearGradient><linearGradient id="linear-gradient-20" x1="1363.41" y1="1068.44" x2="1377.68" y2="1068.44" gradientTransform="translate(-1358.76 1078.05) rotate(-66.53)" gradientUnits="userSpaceOnUse"><stop offset="0" stop-color="#c6b5ab"/><stop offset="0.17" stop-color="#c6b5ab" stop-opacity="0.97"/><stop offset="0.41" stop-color="#c6b5ab" stop-opacity="0.87"/><stop offset="0.69" stop-color="#c6b5ab" stop-opacity="0.71"/><stop offset="1" stop-color="#c6b5ab" stop-opacity="0.5"/></linearGradient><linearGradient id="linear-gradient-21" x1="1478.43" y1="1630.43" x2="1509.77" y2="1630.43" gradientTransform="translate(-1590.97 1666) rotate(-88.38)" gradientUnits="userSpaceOnUse"><stop offset="0" stop-color="#b8256c"/><stop offset="0.06" stop-color="#b8256c" stop-opacity="0.94"/><stop offset="0.37" stop-color="#b8256c" stop-opacity="0.67"/><stop offset="0.64" stop-color="#b8256c" stop-opacity="0.47"/><stop offset="0.86" stop-color="#b8256c" stop-opacity="0.34"/><stop offset="1" stop-color="#b8256c" stop-opacity="0.3"/></linearGradient><linearGradient id="linear-gradient-22" x1="665.61" y1="3010.72" x2="689.91" y2="3010.72" gradientTransform="matrix(-0.93, -0.37, 0.37, -0.93, -356.77, 3265.02)" xlink:href="#linear-gradient-21"/><linearGradient id="linear-gradient-23" x1="-917.66" y1="718.9" x2="-905.25" y2="718.9" gradientTransform="matrix(0.7, 0.71, -0.71, 0.7, 1281.89, 342.93)" gradientUnits="userSpaceOnUse"><stop offset="0" stop-color="#563694"/><stop offset="0.44" stop-color="#563694" stop-opacity="0.73"/><stop offset="0.79" stop-color="#563694" stop-opacity="0.56"/><stop offset="1" stop-color="#563694" stop-opacity="0.5"/></linearGradient><linearGradient id="linear-gradient-24" x1="-922.35" y1="712.06" x2="-911.87" y2="712.06" gradientTransform="matrix(0.7, 0.71, -0.71, 0.7, 1281.89, 342.93)" xlink:href="#linear-gradient-20"/><linearGradient id="linear-gradient-25" x1="787.13" y1="368.17" x2="825.4" y2="368.17" gradientTransform="matrix(0.88, -0.47, 0.47, 0.88, -692.07, 248.19)" gradientUnits="userSpaceOnUse"><stop offset="0" stop-color="#ce2105"/><stop offset="0.21" stop-color="#ce2105" stop-opacity="0.86"/><stop offset="0.56" stop-color="#ce2105" stop-opacity="0.67"/><stop offset="0.83" stop-color="#ce2105" stop-opacity="0.54"/><stop offset="1" stop-color="#ce2105" stop-opacity="0.5"/></linearGradient><linearGradient id="linear-gradient-26" x1="775.51" y1="355.38" x2="792.26" y2="355.38" gradientTransform="matrix(0.88, -0.47, 0.47, 0.88, -692.07, 248.19)" xlink:href="#linear-gradient-10"/><linearGradient id="linear-gradient-27" x1="-1224.98" y1="1534.09" x2="-1193.65" y2="1534.09" gradientTransform="translate(1760.3 1368.62) rotate(87.04)" gradientUnits="userSpaceOnUse"><stop offset="0" stop-color="#ea338b"/><stop offset="0.21" stop-color="#ea338b" stop-opacity="0.8"/><stop offset="0.47" stop-color="#ea338b" stop-opacity="0.59"/><stop offset="0.7" stop-color="#ea338b" stop-opacity="0.43"/><stop offset="0.88" stop-color="#ea338b" stop-opacity="0.34"/><stop offset="1" stop-color="#ea338b" stop-opacity="0.3"/></linearGradient><linearGradient id="linear-gradient-28" x1="-224.87" y1="3035.81" x2="-193.54" y2="3035.81" gradientTransform="translate(532.55 3181.47) rotate(167.31)" xlink:href="#linear-gradient-27"/><linearGradient id="linear-gradient-29" x1="-1290.83" y1="2100.76" x2="-1259.5" y2="2100.76" gradientTransform="translate(1734.93 2046.33) rotate(108.01)" xlink:href="#linear-gradient-27"/><linearGradient id="linear-gradient-30" x1="135.64" y1="250.47" x2="149.79" y2="250.47" gradientUnits="userSpaceOnUse"><stop offset="0" stop-color="#754bc6"/><stop offset="0.19" stop-color="#754bc6" stop-opacity="0.88"/><stop offset="0.55" stop-color="#754bc6" stop-opacity="0.67"/><stop offset="0.83" stop-color="#754bc6" stop-opacity="0.55"/><stop offset="1" stop-color="#754bc6" stop-opacity="0.5"/></linearGradient><linearGradient id="linear-gradient-31" x1="130.29" y1="242.67" x2="142.24" y2="242.67" gradientTransform="matrix(1, 0, 0, 1, 0, 0)" xlink:href="#linear-gradient-10"/><linearGradient id="linear-gradient-32" x1="1409.6" y1="1332.63" x2="1422.01" y2="1332.63" gradientTransform="translate(-1508.43 1343.32) rotate(-79.05)" xlink:href="#linear-gradient-30"/><linearGradient id="linear-gradient-33" x1="1404.9" y1="1325.8" x2="1415.39" y2="1325.8" gradientTransform="translate(-1508.43 1343.32) rotate(-79.05)" xlink:href="#linear-gradient-10"/><linearGradient id="linear-gradient-34" x1="1416.49" y1="1466.97" x2="1428.9" y2="1466.97" gradientTransform="translate(-1508.43 1343.32) rotate(-79.05)" xlink:href="#linear-gradient-30"/><linearGradient id="linear-gradient-35" x1="1411.79" y1="1460.13" x2="1422.28" y2="1460.13" gradientTransform="translate(-1508.43 1343.32) rotate(-79.05)" xlink:href="#linear-gradient-10"/><linearGradient id="linear-gradient-36" x1="-859.6" y1="691.69" x2="-849.01" y2="691.69" gradientTransform="translate(1295.29 295.78) rotate(41.28)" xlink:href="#linear-gradient-30"/><linearGradient id="linear-gradient-37" x1="-863.6" y1="685.85" x2="-854.65" y2="685.85" gradientTransform="translate(1295.29 295.78) rotate(41.28)" xlink:href="#linear-gradient-10"/><linearGradient id="linear-gradient-38" x1="1348.86" y1="1643.56" x2="1359.45" y2="1643.56" gradientTransform="translate(-1659.36 1417.37) rotate(-83.86)" xlink:href="#linear-gradient-30"/><linearGradient id="linear-gradient-39" x1="1344.85" y1="1637.73" x2="1353.8" y2="1637.73" gradientTransform="translate(-1659.36 1417.37) rotate(-83.86)" xlink:href="#linear-gradient-10"/><linearGradient id="linear-gradient-40" x1="-894.72" y1="706.33" x2="-882.3" y2="706.33" gradientTransform="matrix(0.7, 0.71, -0.71, 0.7, 1281.89, 342.93)" xlink:href="#linear-gradient-30"/><linearGradient id="linear-gradient-41" x1="-899.41" y1="699.49" x2="-888.93" y2="699.49" gradientTransform="matrix(0.7, 0.71, -0.71, 0.7, 1281.89, 342.93)" xlink:href="#linear-gradient-10"/><linearGradient id="linear-gradient-42" x1="391.14" y1="376.1" x2="403.55" y2="376.1" gradientTransform="matrix(0.97, -0.26, 0.26, 0.97, -374.95, -68.23)" xlink:href="#linear-gradient-30"/><linearGradient id="linear-gradient-43" x1="386.44" y1="369.26" x2="396.93" y2="369.26" gradientTransform="matrix(0.97, -0.26, 0.26, 0.97, -374.95, -68.23)" xlink:href="#linear-gradient-10"/><linearGradient id="linear-gradient-44" x1="-803.93" y1="618.12" x2="-761.11" y2="618.12" gradientTransform="matrix(0.75, 0.66, -0.66, 0.75, 1098.26, 290.81)" xlink:href="#linear-gradient-25"/><linearGradient id="linear-gradient-45" x1="-816.93" y1="603.81" x2="-798.18" y2="603.81" gradientTransform="matrix(0.75, 0.66, -0.66, 0.75, 1098.26, 290.81)" xlink:href="#linear-gradient-10"/><linearGradient id="linear-gradient-46" x1="-1031.6" y1="662.55" x2="-958.4" y2="662.55" gradientTransform="matrix(0.61, 0.79, -0.79, 0.61, 1345.07, 468.5)" gradientUnits="userSpaceOnUse"><stop offset="0" stop-color="#22aa2f"/><stop offset="0.16" stop-color="#22aa2f" stop-opacity="0.9"/><stop offset="0.52" stop-color="#22aa2f" stop-opacity="0.68"/><stop offset="0.81" stop-color="#22aa2f" stop-opacity="0.55"/><stop offset="1" stop-color="#22aa2f" stop-opacity="0.5"/></linearGradient><linearGradient id="linear-gradient-47" x1="-101.19" y1="144.08" x2="-22.41" y2="144.08" gradientTransform="matrix(0.99, 0.16, -0.16, 0.99, 254.57, -32.76)" xlink:href="#linear-gradient-46"/><linearGradient id="linear-gradient-48" x1="129.54" y1="84.57" x2="213.57" y2="84.57" gradientTransform="matrix(1, 0, 0, 1, 0, 0)" xlink:href="#linear-gradient-46"/></defs><g class="cls-2"><g id="Layer_2" data-name="Layer 2"><g id="OBJECTS"><g class="cls-3"><ellipse class="cls-4" cx="189.62" cy="418.97" rx="172.1" ry="16.45"/></g><g class="cls-5"><path class="cls-6" d="M302.7,422.91H75.78a40.18,40.18,0,0,1-40-36.6l-7.54-84.24H351l-8.33,84.59A40.18,40.18,0,0,1,302.7,422.91Z"/></g><g class="cls-7"><path class="cls-6" d="M316.11,417.43H62.2c-6.68,0-10.63-5.12-6.88-8.91L61,402.74c3.25-3.29,8.66-5.25,14.44-5.25H302.83c5.78,0,11.19,2,14.44,5.25l5.72,5.78C326.74,412.31,322.78,417.43,316.11,417.43Z"/></g><path class="cls-8" d="M237.49,321A16.59,16.59,0,0,1,249,314.15,16.94,16.94,0,0,1,262,318c6.5-5.94,17.54-6.68,24.85-1.67,4.73-3.77,13.49-6.21,19.16-3.92a16.45,16.45,0,0,1,10.2,13.62,12.66,12.66,0,0,1,11.05-.65,11.65,11.65,0,0,1,6.84,8.29,8.43,8.43,0,0,1,3.63-.18,8.23,8.23,0,0,1,6.77,9.34c-1.49,9.86-1.42,19.68-3.3,29.71-2.13,11.35-4.89,24.63-13.67,32.56C316.64,415,298,415.72,283,415.25H252a11.18,11.18,0,0,1-11.09-9.74L234.07,338c-.85-6.54-.68-11.71,3.42-17Z"/><g class="cls-9"><path class="cls-10" d="M297.91,396.19c-.27-3.45,5.09-3.88,5.36-.43s-5.08,3.89-5.36.43Z"/><path class="cls-10" d="M299.19,321.58c-.27-3.45,5.09-3.89,5.36-.43s-5.08,3.88-5.36.43Z"/><path class="cls-10" d="M263.33,376.86c-.28-3.45,5.08-3.89,5.36-.43s-5.09,3.89-5.36.43Z"/><path class="cls-10" d="M325.36,385.33c-.28-3.44,5.08-3.88,5.36-.43s-5.09,3.89-5.36.43Z"/><path class="cls-10" d="M301.67,377.05c-.27-3.45,5.09-3.88,5.37-.43s-5.09,3.89-5.37.43Z"/><path class="cls-10" d="M310,354.38c-.28-3.45,5.08-3.89,5.36-.44s-5.08,3.89-5.36.44Z"/><path class="cls-10" d="M277.87,344.65c-.28-3.45,5.08-3.89,5.36-.44s-5.08,3.89-5.36.44Z"/><path class="cls-10" d="M249.42,333.47c-.27-3.45,5.09-3.89,5.36-.43s-5.08,3.88-5.36.43Z"/><path class="cls-10" d="M278.65,398.05a1.38,1.38,0,0,1,2.75-.22,1.38,1.38,0,0,1-2.75.22Z"/><path class="cls-10" d="M276.77,365a1.38,1.38,0,0,1,2.75-.22,1.38,1.38,0,0,1-2.75.22Z"/><path class="cls-10" d="M327,372.61a1.38,1.38,0,0,1,2.75-.22,1.38,1.38,0,0,1-2.75.22Z"/><path class="cls-10" d="M271.15,326.32a1.38,1.38,0,0,1,2.75-.23,1.38,1.38,0,0,1-2.75.23Z"/><path class="cls-10" d="M300.58,342.88a1.38,1.38,0,0,1,2.75-.22,1.38,1.38,0,0,1-2.75.22Z"/><path class="cls-10" d="M242.22,355.18A1.38,1.38,0,0,1,245,355a1.38,1.38,0,0,1-2.75.22Z"/><path class="cls-10" d="M331.66,352.8a1.38,1.38,0,0,1,2.75-.22,1.38,1.38,0,0,1-2.75.22Z"/><path class="cls-10" d="M312.81,333a1.38,1.38,0,0,1,2.75-.22,1.38,1.38,0,0,1-2.75.22Z"/><path class="cls-10" d="M249.66,321.72a1.38,1.38,0,0,1,2.75-.22,1.38,1.38,0,0,1-2.75.22Z"/><path class="cls-10" d="M248.68,402.32c-.27-3.45,5.09-3.89,5.36-.43s-5.08,3.88-5.36.43Z"/><path class="cls-11" d="M240.68,330.27a4,4,0,0,0-2.25,5.08,2.91,2.91,0,0,0-1.6,4.06"/><path class="cls-11" d="M315,403.51a4,4,0,0,0,3.66-4.18,2.92,2.92,0,0,0,2.74-3.4"/><path class="cls-11" d="M339.92,345.58a4,4,0,0,0-3.48-4.33,2.92,2.92,0,0,0-2.88-3.28"/><path class="cls-11" d="M283.94,383.52a2.84,2.84,0,0,0,1.25-4.49"/><path class="cls-11" d="M257.08,386.73a1.43,1.43,0,0,1-2.69,1,1.52,1.52,0,1,1-3-.13"/><path class="cls-11" d="M294,361.69a1.43,1.43,0,0,1,.45-2.82,1.52,1.52,0,1,1,1.58-2.54"/><path class="cls-11" d="M307.9,370.52a1.43,1.43,0,0,1,2.84-.23,1.52,1.52,0,1,1,2.85.91"/><path class="cls-11" d="M261.22,355.3a4.11,4.11,0,0,0-.94-4.32"/><path class="cls-11" d="M282.17,327.78a4.11,4.11,0,0,0-.94-4.32"/><path class="cls-11" d="M267.87,408a4.76,4.76,0,0,1-4.15,1.23"/><path class="cls-11" d="M337,361.68a4.71,4.71,0,0,1-1.84,3.92"/><path class="cls-11" d="M288.29,408a2.73,2.73,0,0,0,1.15-4.2"/><path class="cls-11" d="M320.37,356.12a2.75,2.75,0,0,0,1.14-4.21"/><path class="cls-11" d="M251,354.51a9.79,9.79,0,0,1-1-4.55"/><path class="cls-11" d="M252.35,368.77a4.75,4.75,0,0,1-4,.6"/><path class="cls-11" d="M269,337.44a4.74,4.74,0,0,1-4,.59"/><path class="cls-11" d="M319.17,390.23a4.71,4.71,0,0,1-4,.6"/><path class="cls-11" d="M301,333.07a4.75,4.75,0,0,1-4,.6"/></g><polygon class="cls-12" points="246.02 344.02 243.93 344.86 243.19 343.8 244.23 342.28 246.02 344.02"/><polygon class="cls-12" points="341.29 339.23 339.2 340.06 338.46 339 339.5 337.48 341.29 339.23"/><polygon class="cls-12" points="282.25 335.72 280.15 336.56 279.41 335.5 280.46 333.98 282.25 335.72"/><polygon class="cls-12" points="267.07 406.66 264.97 407.49 264.23 406.43 265.27 404.92 267.07 406.66"/><polygon class="cls-12" points="326.7 342.2 324.61 343.04 323.87 341.98 324.91 340.46 326.7 342.2"/><polygon class="cls-12" points="247.45 394.22 246.76 397.44 244.88 397.48 243.88 394.99 247.45 394.22"/><polygon class="cls-12" points="256.94 374.79 258.91 375.53 258.75 376.73 257.08 377.11 256.94 374.79"/><polygon class="cls-12" points="268.41 354.39 265.12 355.06 264.31 353.32 266.24 351.37 268.41 354.39"/><polygon class="cls-12" points="256.37 323.61 257.06 320.4 258.95 320.36 259.94 322.85 256.37 323.61"/><polygon class="cls-12" points="302.96 403.27 303.65 400.05 305.53 400.01 306.52 402.5 302.96 403.27"/><polygon class="cls-12" points="292.6 324.48 292.91 321.15 294.81 320.89 296.11 323.28 292.6 324.48"/><polygon class="cls-12" points="296.94 352.2 301.21 350.96 302.46 353.18 300.13 355.96 296.94 352.2"/><polygon class="cls-12" points="327.25 365.3 324.11 364.11 324.36 362.2 327.03 361.58 327.25 365.3"/><polygon class="cls-12" points="246.86 367.24 243.72 366.05 243.97 364.14 246.64 363.53 246.86 367.24"/><polygon class="cls-12" points="312.96 384.79 309.82 383.59 310.07 381.69 312.74 381.07 312.96 384.79"/><polygon class="cls-12" points="277.82 372.47 278.91 370.29 280.27 370.62 280.52 372.59 277.82 372.47"/><polygon class="cls-12" points="276.9 400.39 280.19 399.71 281 401.46 279.07 403.41 276.9 400.39"/><g class="cls-13"><path class="cls-14" d="M59.3,332.81c-4.84-2.47-9.72-5.18-13.22-9.22s-5.37-9.72-3.35-14.36c1.87-4.31,6.69-6.88,11.61-7.55s10,.27,14.93,1.25c18.84,3.73,37.6,8.28,55.66,14.93,7.94,2.92,17.24,6.95,20.48,15.09,2.31,5.8,1.88,13.2-3.38,17-12.93,9.4-37,.76-50.84-3.8A227.88,227.88,0,0,1,59.3,332.81Z"/><g class="cls-15"><g class="cls-16"><path class="cls-17" d="M116.05,360.13a96.75,96.75,0,0,0,17-46.3"/><path class="cls-17" d="M87.21,351.21a95.8,95.8,0,0,0,16.93-44.6"/><path class="cls-17" d="M66.26,338.28A83.73,83.73,0,0,0,80,295.91"/><path class="cls-17" d="M45.3,328.1a105.94,105.94,0,0,0,12.81-27"/></g></g><path class="cls-18" d="M124.93,317.86c-18.06-6.64-36.82-11.2-55.66-14.94-5-1-10-1.9-14.93-1.23-4.05.54-8,2.38-10.37,5.42a438.67,438.67,0,0,1,101.32,25.55C141.94,324.71,132.78,320.75,124.93,317.86Z"/><path class="cls-19" d="M144.63,347.29a96.4,96.4,0,0,1-12.32.87,148.73,148.73,0,0,1-33-3.32,339.14,339.14,0,0,1-35.38-9.73,223.67,223.67,0,0,0,27.25,11.07C105,350.74,129.1,359.37,142,350A10.68,10.68,0,0,0,144.63,347.29Z"/><path class="cls-14" d="M125.91,404.4c-3.92,1.89-8,3.69-12.29,4s-8.8-1.29-10.79-4.82c-1.84-3.28-1.14-7.6.82-11.06s5-6.25,8-8.93c11.51-10.22,23.51-20,36.5-28.28,5.71-3.65,12.78-7.64,19.55-5.76,4.82,1.33,9.34,5.19,9.23,10.41-.27,12.8-17.44,24-27.06,30.6A183.26,183.26,0,0,1,125.91,404.4Z"/><g class="cls-20"><g class="cls-16"><path class="cls-21" d="M170.84,381.42a77.52,77.52,0,0,0-21.32-33.27"/><path class="cls-21" d="M151.18,395.5a76.85,76.85,0,0,0-20.26-32.41"/><path class="cls-21" d="M132.78,402.61a67.17,67.17,0,0,0-20.39-29.29"/><path class="cls-21" d="M116.12,411.05a84.62,84.62,0,0,0-11-21.25"/></g></g><path class="cls-22" d="M148.17,355.28c-13,8.3-25,18.06-36.5,28.28-3,2.68-6.07,5.46-8,8.93a12.52,12.52,0,0,0-1.56,9.24,350.9,350.9,0,0,1,65.39-52.27C160.78,347.74,153.81,351.66,148.17,355.28Z"/><path class="cls-23" d="M176.49,357a78.14,78.14,0,0,1-5.41,8.29A119.11,119.11,0,0,1,153,384.69a268.36,268.36,0,0,1-23.35,17.86,177.43,177.43,0,0,0,20.27-12c9.62-6.62,26.79-17.8,27.06-30.6A8.56,8.56,0,0,0,176.49,357Z"/><path class="cls-24" d="M142.48,381.38c-5.36.9-10.9,1.63-16.12.47s-10.09-4.61-11.24-9.54c-1.07-4.57,1.28-9.51,4.83-13s8.18-5.74,12.73-7.9c17.36-8.22,35.14-15.74,53.61-21.16,8.12-2.38,18-4.69,25.44-.08,5.31,3.28,9.37,9.48,7.42,15.7-4.79,15.24-29.27,22.65-43.1,27.23A226.86,226.86,0,0,1,142.48,381.38Z"/><g class="cls-25"><g class="cls-26"><path class="cls-17" d="M122.44,343.7A96.79,96.79,0,0,0,136.38,391"/><path class="cls-17" d="M150.92,333.69a95.8,95.8,0,0,0,13,45.9"/><path class="cls-17" d="M175.45,331.59a83.73,83.73,0,0,0,14.21,42.21"/><path class="cls-17" d="M198.35,327.29c.53,10,3.54,22.85,11.14,36.71"/></g></g><path class="cls-27" d="M186.29,330.29c-18.47,5.41-36.25,12.92-53.61,21.15-4.55,2.16-9.18,4.43-12.73,7.9-2.93,2.85-5,6.7-5.09,10.53A438.61,438.61,0,0,1,211.46,330C204,325.65,194.31,327.92,186.29,330.29Z"/><path class="cls-28" d="M219.64,342.18a93.91,93.91,0,0,1-9.38,8,148.5,148.5,0,0,1-28.48,17,337.27,337.27,0,0,1-34.21,13.25,222.57,222.57,0,0,0,28.49-7.33c13.83-4.58,38.3-12,43.09-27.24A10.61,10.61,0,0,0,219.64,342.18Z"/><path class="cls-24" d="M129.82,347.9c5.39.68,10.91,1.58,15.57,4.2s8.33,7.33,8,12.38c-.3,4.69-4,8.73-8.37,11s-9.49,3.13-14.47,3.88c-19,2.87-38.19,4.93-57.43,4.79-8.46-.07-18.58-.7-24.39-7.27-4.13-4.67-6.23-11.78-2.57-17.17,9-13.22,34.56-13.24,49.12-13.63A227.61,227.61,0,0,1,129.82,347.9Z"/><g class="cls-29"><g class="cls-26"><path class="cls-17" d="M138.13,389.76a96.66,96.66,0,0,0,.3-49.32"/><path class="cls-17" d="M108,391.13a95.74,95.74,0,0,0,.84-47.7"/><path class="cls-17" d="M83.88,386.05a83.83,83.83,0,0,0-1.42-44.52"/><path class="cls-17" d="M60.71,383.56c2.37-9.7,3.21-22.9-.06-38.36"/></g></g><path class="cls-30" d="M73.13,384.17c19.24.15,38.43-1.91,57.43-4.78,5-.75,10.07-1.59,14.47-3.89,3.62-1.88,6.75-5,7.91-8.61A438.44,438.44,0,0,1,49,377.14C54.8,383.49,64.76,384.12,73.13,384.17Z"/><path class="cls-31" d="M44.63,363.16a96.12,96.12,0,0,1,11.3-5,149.06,149.06,0,0,1,32.17-8,336.06,336.06,0,0,1,36.58-2.81,223.57,223.57,0,0,0-29.39-1.2c-14.56.39-40.13.42-49.12,13.63A10.59,10.59,0,0,0,44.63,363.16Z"/><path class="cls-10" d="M40.57,329.2c-1.86,3.93-3.63,8.05-3.87,12.32s1.36,8.79,4.91,10.75c3.3,1.82,7.61,1.08,11-.91s6.21-5.05,8.86-8.1c10.12-11.59,19.79-23.67,28-36.73,3.61-5.74,7.53-12.84,5.6-19.6-1.37-4.8-5.27-9.29-10.49-9.13-12.8.37-23.83,17.64-30.37,27.3A181.71,181.71,0,0,0,40.57,329.2Z"/><g class="cls-32"><g class="cls-16"><path class="cls-33" d="M63.17,284.08a77.49,77.49,0,0,1,33.44,21"/><path class="cls-33" d="M49.25,303.86a76.65,76.65,0,0,1,32.58,20"/><path class="cls-33" d="M42.3,322.32a67.12,67.12,0,0,1,29.46,20.14"/><path class="cls-33" d="M34,339a84.65,84.65,0,0,1,21.34,10.84"/></g></g><path class="cls-34" d="M89.5,306.53c-8.19,13.06-17.85,25.14-28,36.74-2.66,3-5.42,6.11-8.87,8.09A12.55,12.55,0,0,1,43.44,353a351.57,351.57,0,0,0,51.72-65.82C96.93,293.86,93.07,300.86,89.5,306.53Z"/><path class="cls-35" d="M87.58,278.23a76.51,76.51,0,0,0-8.24,5.48A119.52,119.52,0,0,0,60.05,302a272,272,0,0,0-17.67,23.5A178.37,178.37,0,0,1,54.24,305.1c6.54-9.67,17.58-26.93,30.37-27.31A8.55,8.55,0,0,1,87.58,278.23Z"/><path class="cls-10" d="M69.44,382.1c-4.84,2.47-9.72,5.18-13.22,9.22s-5.36,9.72-3.35,14.36c1.87,4.31,6.69,6.88,11.61,7.55s10-.27,14.93-1.24c18.84-3.74,37.6-8.29,55.66-14.94,7.94-2.92,17.24-6.95,20.49-15.09,2.31-5.8,1.88-13.2-3.39-17-12.93-9.4-37-.76-50.84,3.8A228.38,228.38,0,0,0,69.44,382.1Z"/><g class="cls-36"><g class="cls-16"><path class="cls-37" d="M126.19,354.78a96.65,96.65,0,0,1,17,46.3"/><path class="cls-37" d="M97.36,363.7a95.9,95.9,0,0,1,16.93,44.6"/><path class="cls-37" d="M76.4,376.63A83.84,83.84,0,0,1,90.14,419"/><path class="cls-37" d="M55.44,386.81a105.6,105.6,0,0,1,12.81,27"/></g></g><path class="cls-38" d="M135.07,397.05C117,403.69,98.26,408.25,79.41,412c-4.94,1-10,1.9-14.93,1.23-4.05-.54-8-2.38-10.36-5.42a438.72,438.72,0,0,0,101.31-25.55C152.08,390.2,142.92,394.16,135.07,397.05Z"/><path class="cls-39" d="M154.77,367.62a96.27,96.27,0,0,0-12.32-.87,148.73,148.73,0,0,0-33,3.32,339.82,339.82,0,0,0-35.38,9.73,224.32,224.32,0,0,1,27.25-11.07c13.84-4.56,37.91-13.19,50.84-3.8A10.68,10.68,0,0,1,154.77,367.62Z"/><path class="cls-10" d="M168.31,333.63c-3.92-1.89-8-3.69-12.29-4s-8.8,1.29-10.78,4.82c-1.85,3.28-1.15,7.6.81,11.06s5,6.25,8,8.93c11.52,10.22,23.51,20,36.5,28.28,5.71,3.65,12.79,7.64,19.56,5.76,4.81-1.33,9.33-5.19,9.22-10.41-.27-12.8-17.44-24-27.06-30.6A182.6,182.6,0,0,0,168.31,333.63Z"/><g class="cls-40"><g class="cls-16"><path class="cls-33" d="M213.24,356.61a77.52,77.52,0,0,1-21.32,33.27"/><path class="cls-33" d="M193.58,342.53a76.75,76.75,0,0,1-20.26,32.41"/><path class="cls-33" d="M175.18,335.42a67.17,67.17,0,0,1-20.39,29.29"/><path class="cls-33" d="M158.52,327a84.62,84.62,0,0,1-11,21.25"/></g></g><path class="cls-41" d="M190.57,382.75c-13-8.3-25-18.06-36.5-28.28-3-2.68-6.07-5.46-8-8.93a12.62,12.62,0,0,1-1.56-9.24,351.22,351.22,0,0,0,65.39,52.27C203.18,390.29,196.22,386.37,190.57,382.75Z"/><path class="cls-42" d="M218.89,381.07a76.61,76.61,0,0,0-5.41-8.29,119.49,119.49,0,0,0-18.1-19.44A269.88,269.88,0,0,0,172,335.48a178.3,178.3,0,0,1,20.27,12c9.61,6.62,26.78,17.8,27,30.6A8.56,8.56,0,0,1,218.89,381.07Z"/><path class="cls-43" d="M129.27,379.06c-5.4.63-10.92,1.47-15.6,4s-8.41,7.25-8.14,12.3c.25,4.69,3.88,8.77,8.26,11.11s9.45,3.23,14.43,4c19,3.06,38.13,5.31,57.38,5.37,8.46,0,18.58-.52,24.45-7,4.19-4.63,6.36-11.73,2.75-17.15-8.85-13.3-34.43-13.59-49-14.12A226.57,226.57,0,0,0,129.27,379.06Z"/><g class="cls-44"><g class="cls-26"><path class="cls-37" d="M120.55,420.83a96.62,96.62,0,0,1,.19-49.31"/><path class="cls-37" d="M150.68,422.5a95.84,95.84,0,0,1-.35-47.7"/><path class="cls-37" d="M174.83,417.67a83.78,83.78,0,0,1,1.86-44.5"/><path class="cls-37" d="M198,415.42c-2.27-9.73-3-22.93.45-38.37"/></g></g><path class="cls-45" d="M185.6,415.9c-19.24,0-38.41-2.3-57.38-5.36-5-.8-10-1.69-14.43-4-3.61-1.92-6.7-5-7.83-8.69a438.6,438.6,0,0,0,103.88,11.29C203.93,415.4,194,415.93,185.6,415.9Z"/><path class="cls-46" d="M214.3,395.17a95.23,95.23,0,0,0-11.24-5.1A148.64,148.64,0,0,0,171,381.7a338.32,338.32,0,0,0-36.55-3.18,221.93,221.93,0,0,1,29.4-.9c14.56.54,40.13.82,49,14.12A10.5,10.5,0,0,1,214.3,395.17Z"/><path class="cls-43" d="M134.05,363.24c5.39-.68,10.91-1.58,15.57-4.19s8.33-7.33,8-12.38c-.3-4.69-4-8.74-8.37-11s-9.49-3.13-14.47-3.89c-19-2.86-38.19-4.92-57.44-4.78-8.46.06-18.57.7-24.38,7.27-4.13,4.67-6.23,11.78-2.57,17.16,9,13.22,34.56,13.25,49.12,13.64A226.33,226.33,0,0,0,134.05,363.24Z"/><g class="cls-47"><g class="cls-26"><path class="cls-37" d="M142.35,321.39a96.62,96.62,0,0,1,.31,49.31"/><path class="cls-37" d="M112.2,320a95.7,95.7,0,0,1,.84,47.69"/><path class="cls-37" d="M88.11,325.09a83.82,83.82,0,0,1-1.42,44.52"/><path class="cls-37" d="M64.94,327.58c2.37,9.71,3.21,22.9-.06,38.37"/></g></g><path class="cls-48" d="M77.36,327c19.24-.14,38.43,1.92,57.43,4.78,5,.76,10.06,1.6,14.47,3.89,3.62,1.89,6.75,5,7.91,8.61A438.43,438.43,0,0,0,53.19,334C59,327.66,69,327,77.36,327Z"/><path class="cls-49" d="M48.86,348a96,96,0,0,0,11.3,5,148.47,148.47,0,0,0,32.17,8,338.6,338.6,0,0,0,36.58,2.82A223.57,223.57,0,0,1,99.52,365c-14.56-.4-40.14-.42-49.13-13.64A10.83,10.83,0,0,1,48.86,348Z"/></g><g class="cls-50"><path class="cls-6" d="M302.7,422.91H75.78a40.18,40.18,0,0,1-40-36.6l-7.54-84.24H351l-8.33,84.59A40.18,40.18,0,0,1,302.7,422.91Z"/></g><g class="cls-51"><path class="cls-52" d="M58.19,324.27c2.83,25.55,5.67,42.1,8.5,67.64"/><path class="cls-52" d="M321,325.27c-2.83,25.55-5.66,41.1-8.5,66.64"/></g><g class="cls-53"><path class="cls-6" d="M351,302.07H28.21l1,11.14H221.43v109.7H240.3l-10.44-109.7H349.91Z"/></g><g class="cls-54"><path class="cls-6" d="M378.47,285.15A19.07,19.07,0,0,0,373.2,275l-18.95-20.19s-1.09-.81-3.4,0c-1.48.53,5.12,11.44,10,19.15a18.8,18.8,0,0,1,2.6,13.49l-.66,3.55a41.8,41.8,0,0,0,6.61,31.4,28,28,0,0,0,1.73,2.29h.5a4.09,4.09,0,0,0,4.08-4.36c-.32-5.13.82-10.37,2-15.43A46.21,46.21,0,0,0,378.47,285.15Z"/></g><path class="cls-55" d="M377.74,304.94c-1.19,5-2.33,10.29-2,15.42a4.09,4.09,0,0,1-4.09,4.36h-.49l-.25-.31c-1.46-4.19-1.25-9-.38-13.49,1.15-6,3.31-11.95,3.15-18.09-.17-7.14-3.84-14.76-8-20.63l.69-4.42L373.2,275a19.06,19.06,0,0,1,5.26,10.12A46.09,46.09,0,0,1,377.74,304.94Z"/><g class="cls-54"><path class="cls-6" d="M.76,285.15A19.07,19.07,0,0,1,6,275l19-20.19s1.09-.81,3.4,0c1.48.53-5.12,11.44-10,19.15a18.8,18.8,0,0,0-2.6,13.49l.66,3.55a41.8,41.8,0,0,1-6.61,31.4,28,28,0,0,1-1.73,2.29H7.59a4.1,4.1,0,0,1-4.09-4.36c.32-5.13-.82-10.37-2-15.43A46.21,46.21,0,0,1,.76,285.15Z"/></g><path class="cls-55" d="M1.49,304.94c1.19,5,2.33,10.29,2,15.42a4.09,4.09,0,0,0,4.09,4.36h.49l.26-.31c1.46-4.19,1.24-9,.37-13.49-1.15-6-3.3-11.95-3.15-18.09.17-7.14,3.85-14.76,8-20.63l-.7-4.42L6,275A19.06,19.06,0,0,0,.77,285.15,46.09,46.09,0,0,0,1.49,304.94Z"/><path class="cls-6" d="M366.55,288.26H12.68v12.33h0c0,4.25,4.84,8.23,11.86,8.23H354.69c7,0,11.91-4,11.86-8.23h0Z"/><path class="cls-56" d="M366.55,268.42H12.68v18.82h0c0,4.25,4.84,8.23,11.86,8.23H354.69c7,0,11.91-4,11.86-8.23h0Z"/><path class="cls-57" d="M354.69,277.72H24.54c-9.51,0-15.14-7.3-9.8-12.7l8.15-8.23c4.63-4.68,12.33-7.48,20.57-7.48H335.77c8.24,0,15.94,2.8,20.57,7.48l8.15,8.23C369.83,270.42,364.2,277.72,354.69,277.72Z"/><path class="cls-55" d="M294.92,277.77V312a22.7,22.7,0,0,1-20,22.54c-63.85,4.93-170.67,0-170.67,0a22.7,22.7,0,0,1-20-22.54V277.77h7.56V312a15.16,15.16,0,0,0,13.06,15c4.17.18,49.67,2.17,97.39,2.17,29.08,0,53.26-.72,71.87-2.16a15.15,15.15,0,0,0,13.17-15V277.77Z"/><g class="cls-5"><path class="cls-6" d="M202.33,329.13c-47.73,0-93.23-2-97.4-2.17a15.15,15.15,0,0,1-13.06-15V277.76H287.36V312a15.14,15.14,0,0,1-13.17,15C255.58,328.4,231.4,329.13,202.33,329.13Z"/></g><g class="cls-58"><ellipse class="cls-57" cx="189.62" cy="258.8" rx="132.16" ry="12.63"/></g><g class="cls-5"><path class="cls-6" d="M284.32,262.56H94.16a40.18,40.18,0,0,1-40-36.61l-7.54-62.61h286l-8.33,63A40.18,40.18,0,0,1,284.32,262.56Z"/></g><g class="cls-7"><path class="cls-6" d="M296.67,257h-215c-5.65,0-9-4.34-5.82-7.55l4.84-4.89c2.75-2.78,7.33-4.45,12.23-4.45H285.42c4.89,0,9.47,1.67,12.23,4.45l4.84,4.89C305.66,252.65,302.32,257,296.67,257Z"/></g><path class="cls-59" d="M315.08,194.27l-.06.09a10.18,10.18,0,0,0-5.21-7.42,8.77,8.77,0,0,0-8.43-.18,14,14,0,0,0-18.71-2.71,14.37,14.37,0,0,0-13.65-4.5,14.67,14.67,0,0,0-10.55,9.93,14.42,14.42,0,0,0-13-1.58,14.89,14.89,0,0,0-8.91,9.8c-.31-.13-.61-.24-.92-.34-7.66-2.5-15.3,4.08-14.74,12.27.9,13.3,1.64,26.54,3.38,39.46a6.76,6.76,0,0,0,6.25,5.88c7.12.43,30.68.42,51.66.3,20.67-.12,37.9-16.19,39.86-37.2.83-8.93,1.6-16.8,2-19.88C324.7,193,318.15,190.09,315.08,194.27Z"/><path class="cls-60" d="M252,196.93c-1.38,1.4-3.2,1.81-4.06.92s-.44-2.74.95-4.14,3.2-1.8,4.06-.92S253.38,195.54,252,196.93Z"/><path class="cls-61" d="M252.61,193.25a35.32,35.32,0,0,0-4.22,4.08"/><path class="cls-60" d="M260.75,205.7c-1.94-.12-3.46-1.23-3.38-2.48s1.7-2.16,3.64-2,3.46,1.23,3.38,2.48S262.69,205.82,260.75,205.7Z"/><path class="cls-61" d="M263.84,203.7a33.93,33.93,0,0,0-5.79-.48"/><path class="cls-60" d="M301.66,244.06c-1.94-.13-3.45-1.23-3.38-2.48s1.71-2.17,3.65-2,3.45,1.23,3.38,2.47S303.6,244.18,301.66,244.06Z"/><path class="cls-61" d="M304.75,242.06a35,35,0,0,0-5.78-.49"/><path class="cls-60" d="M253.72,221.86c-1.55-1.2-2.2-3-1.46-4s2.59-.83,4.14.37,2.21,3,1.47,4S255.27,223.06,253.72,221.86Z"/><path class="cls-61" d="M257.38,222a35.71,35.71,0,0,0-4.55-3.68"/><ellipse class="cls-60" cx="237.57" cy="220.74" rx="3.52" ry="2.26" transform="translate(-29.11 36.23) rotate(-8.22)"/><path class="cls-61" d="M240.52,220.4a35,35,0,0,0-5.77.69"/><path class="cls-60" d="M273.31,200.78c-1.45-1.33-1.95-3.17-1.13-4.09s2.66-.6,4.1.73,1.94,3.16,1.12,4.09S274.75,202.11,273.31,200.78Z"/><path class="cls-61" d="M276.94,201.19a36.06,36.06,0,0,0-4.22-4.07"/><path class="cls-60" d="M236.64,246.59c-.83-1.8-.61-3.69.5-4.22s2.68.49,3.51,2.29.6,3.68-.51,4.21S237.46,248.38,236.64,246.59Z"/><path class="cls-61" d="M239.84,248.4a36.76,36.76,0,0,0-2.37-5.42"/><path class="cls-60" d="M300.42,213.62c-1.12-1.62-1.23-3.52-.23-4.24s2.72,0,3.85,1.62,1.22,3.52.23,4.25S301.55,215.24,300.42,213.62Z"/><path class="cls-61" d="M303.88,214.83a35.44,35.44,0,0,0-3.26-4.91"/><path class="cls-60" d="M283.22,188.64c1.25-1.52,3-2.1,4-1.29s.68,2.69-.57,4.21-3,2.1-4,1.29S282,190.16,283.22,188.64Z"/><path class="cls-61" d="M283,192.37a36.31,36.31,0,0,0,3.83-4.46"/><path class="cls-60" d="M293,217.63c1.92.34,3.31,1.6,3.1,2.84s-1.92,2-3.84,1.63-3.3-1.61-3.1-2.84S291.06,217.3,293,217.63Z"/><path class="cls-61" d="M289.69,219.28a35.68,35.68,0,0,0,5.7,1.12"/><path class="cls-60" d="M281.44,207.41c1.84-.64,3.65-.19,4,1s-.78,2.66-2.62,3.3-3.65.2-4-1S279.6,208.05,281.44,207.41Z"/><path class="cls-61" d="M279.31,210.46a34.75,34.75,0,0,0,5.54-1.79"/><path class="cls-60" d="M275.59,225.71c.43-1.93,1.75-3.28,2.94-3s1.81,2.07,1.38,4-1.75,3.28-2.94,3S275.16,227.65,275.59,225.71Z"/><path class="cls-61" d="M277,229.15a36.26,36.26,0,0,0,1.4-5.75"/><path class="cls-60" d="M267.18,214.33c1.54-1.2,3.4-1.37,4.14-.38s.09,2.78-1.45,4-3.41,1.38-4.15.38S265.63,215.54,267.18,214.33Z"/><path class="cls-61" d="M266.11,217.91a36.28,36.28,0,0,0,4.7-3.5"/><path class="cls-60" d="M305.36,227.27c1.93.22,3.39,1.41,3.25,2.65s-1.81,2.07-3.74,1.85-3.39-1.4-3.25-2.64S303.43,227.06,305.36,227.27Z"/><path class="cls-61" d="M302.17,229.11a34.84,34.84,0,0,0,5.76.78"/><path class="cls-60" d="M234.73,203c1.34,1.44,1.7,3.31.81,4.17s-2.69.39-4-1-1.7-3.3-.81-4.16S233.39,201.52,234.73,203Z"/><path class="cls-61" d="M231.13,202.27a37,37,0,0,0,3.91,4.39"/><path class="cls-60" d="M282.39,242.23c1.87-.55,3.66,0,4,1.19s-.91,2.62-2.78,3.16-3.66,0-4-1.19S280.52,242.77,282.39,242.23Z"/><path class="cls-61" d="M280.12,245.16a34.26,34.26,0,0,0,5.62-1.5"/><path class="cls-60" d="M265.63,233.79c-1.31-1.46-1.64-3.34-.73-4.18s2.7-.33,4,1.13,1.63,3.34.73,4.18S266.94,235.26,265.63,233.79Z"/><path class="cls-61" d="M269.21,234.56a37,37,0,0,0-3.82-4.47"/><ellipse class="cls-60" cx="248.13" cy="230.07" rx="3.59" ry="2.22" transform="translate(-4.68 454.99) rotate(-84.49)"/><path class="cls-61" d="M247.76,233.08a37.44,37.44,0,0,0,.7-5.89"/><path class="cls-60" d="M244.52,205.43c1.24-1.53,3-2.13,3.95-1.34s.71,2.68-.53,4.22-3,2.13-3.94,1.33S243.29,207,244.52,205.43Z"/><path class="cls-61" d="M244.29,209.16a37.06,37.06,0,0,0,3.78-4.5"/><path class="cls-60" d="M269,186.91c1.79-.77,3.63-.46,4.1.69s-.59,2.71-2.38,3.49-3.62.46-4.1-.69S267.21,187.69,269,186.91Z"/><path class="cls-61" d="M267.1,190.11a34.44,34.44,0,0,0,5.39-2.2"/><path class="cls-60" d="M313.58,204.71c.38-2,1.67-3.33,2.87-3.08s1.86,2,1.48,4-1.67,3.32-2.87,3.08S313.2,206.65,313.58,204.71Z"/><path class="cls-61" d="M315.1,208.11a38.05,38.05,0,0,0,1.26-5.79"/><path class="cls-60" d="M253.13,240c1.63-1.09,3.5-1.11,4.16-.07s-.11,2.78-1.74,3.86-3.49,1.11-4.16.07S251.5,241.11,253.13,240Z"/><path class="cls-61" d="M251.81,243.51a35.45,35.45,0,0,0,4.94-3.13"/><ellipse class="cls-60" cx="291.68" cy="234.3" rx="2.26" ry="3.53" transform="translate(-13.27 451.04) rotate(-74.18)"/><path class="cls-61" d="M288.84,233.43a33.68,33.68,0,0,0,5.57,1.67"/><path class="cls-60" d="M270,245.85c.25,2-.54,3.69-1.75,3.85s-2.4-1.3-2.65-3.27.54-3.7,1.75-3.86S269.79,243.88,270,245.85Z"/><path class="cls-61" d="M267.54,243.12a36.56,36.56,0,0,0,.62,5.9"/><path class="cls-60" d="M235.22,231.48c1.28,1.49,1.57,3.37.65,4.19s-2.7.29-4-1.21-1.58-3.37-.66-4.2S233.94,230,235.22,231.48Z"/><path class="cls-61" d="M231.65,230.64a37,37,0,0,0,3.74,4.54"/><path class="cls-60" d="M315.44,220.5c.46,1.93-.13,3.73-1.32,4s-2.53-1-3-3,.14-3.73,1.33-4S315,218.57,315.44,220.5Z"/><path class="cls-61" d="M312.66,218.06a38.15,38.15,0,0,0,1.25,5.8"/><path class="cls-60" d="M297.29,199.7c.46,1.93-.13,3.74-1.32,4s-2.53-1-3-3,.13-3.73,1.32-4S296.84,197.77,297.29,199.7Z"/><path class="cls-61" d="M294.52,197.27a37.08,37.08,0,0,0,1.24,5.79"/><path class="cls-60" d="M305.39,193.39c1.92.29,3.34,1.52,3.16,2.76s-1.88,2-3.81,1.71-3.33-1.52-3.16-2.76S303.47,193.09,305.39,193.39Z"/><path class="cls-61" d="M302.14,195.1a34.7,34.7,0,0,0,5.73,1"/><g class="cls-62"><path class="cls-63" d="M164,230.7a11.67,11.67,0,0,0,2.53-5.68,11,11,0,0,0-.23-3.8,14.11,14.11,0,0,0-5.85-8.56,13.4,13.4,0,0,0-2.77,11,8.78,8.78,0,0,0,1.37,3.45A12.44,12.44,0,0,0,164,230.7Z"/><path class="cls-64" d="M164,230.7a11.67,11.67,0,0,0,2.53-5.68,11,11,0,0,0-.23-3.8,14.11,14.11,0,0,0-5.85-8.56,13.4,13.4,0,0,0-2.77,11,8.78,8.78,0,0,0,1.37,3.45A12.44,12.44,0,0,0,164,230.7Z"/><g class="cls-3"><path class="cls-65" d="M164,230.36q-2.09-8.27-3.37-16.69"/><path class="cls-65" d="M165.18,221.12a16.06,16.06,0,0,1-2.12,5.34"/><path class="cls-65" d="M163.63,217.14a8.56,8.56,0,0,1-1.67,4"/><path class="cls-65" d="M162.6,224.65a9,9,0,0,1-3.85-2"/><path class="cls-65" d="M161.54,219.17a11.72,11.72,0,0,1-3-1.91"/></g><path class="cls-66" d="M146.2,239.61a15.33,15.33,0,0,0,17-9.35,7.16,7.16,0,0,0-3.76-.91,14,14,0,0,0-8.56,3A12.76,12.76,0,0,0,146.2,239.61Z"/><g class="cls-67"><path class="cls-68" d="M163,230.4q-7.69,3.65-15,8"/><path class="cls-68" d="M156.68,237.2a16.08,16.08,0,0,0,2.75-5"/><path class="cls-68" d="M152.62,238.54a8.5,8.5,0,0,0,2-3.83"/><path class="cls-68" d="M157.75,233a8.81,8.81,0,0,0-3.86-1.87"/><path class="cls-68" d="M152.92,235.54a10.22,10.22,0,0,0-3.29-1"/></g><path class="cls-69" d="M157,240.36a13.23,13.23,0,0,0,2.74,9.26c3.24,3.85,8.76,4.77,13.79,5a55.57,55.57,0,0,0,18-1.82c2.7-.79,5.82-1.67,8.09-4.17A9.23,9.23,0,0,0,201,238c-1.52-2.94-13-26.82-25.19-24.87-5.69.91-9.82,5.61-12.27,9.54C160.42,227.62,157.31,234.44,157,240.36Z"/><g class="cls-53"><path class="cls-70" d="M158.5,240.73a.82.82,0,0,1,.24.78.79.79,0,0,1-.49.49,1.42,1.42,0,0,1-.71.05,2.73,2.73,0,0,1-.56-.15c0-.51,0-1,0-1.54a1,1,0,0,0,0-.17h0a2,2,0,0,1,.73.13A1.74,1.74,0,0,1,158.5,240.73Z"/><path class="cls-70" d="M168.34,216.87a2.5,2.5,0,0,1,.56.35,1.42,1.42,0,0,1,.42.58.77.77,0,0,1-.06.69.78.78,0,0,1-.74.32,1.65,1.65,0,0,1-.79-.29,2,2,0,0,1-.58-.46l0,0C167.51,217.63,167.92,217.24,168.34,216.87Z"/><path class="cls-70" d="M162.71,247.26a1.35,1.35,0,0,0,.69-.16.76.76,0,0,0,.4-.57.81.81,0,0,0-.36-.73,1.75,1.75,0,0,0-.8-.28,2,2,0,0,0-.74,0,.84.84,0,0,0-.8.86c0,.39.49.66.8.77A2.25,2.25,0,0,0,162.71,247.26Z"/><path class="cls-70" d="M174.92,249.26a1.36,1.36,0,0,0,.69-.17.76.76,0,0,0,.4-.56.79.79,0,0,0-.36-.73,1.88,1.88,0,0,0-.8-.29,2.62,2.62,0,0,0-.74,0c-.46.09-.83.37-.8.87s.48.66.8.77A2.45,2.45,0,0,0,174.92,249.26Z"/><path class="cls-70" d="M169.78,244.6a1.29,1.29,0,0,0,.7-.08A.77.77,0,0,0,171,244a.82.82,0,0,0-.27-.77,1.9,1.9,0,0,0-.75-.38,2.07,2.07,0,0,0-.74-.1c-.47,0-.87.26-.9.76s.4.72.69.86A2.22,2.22,0,0,0,169.78,244.6Z"/><path class="cls-70" d="M181.83,245.62a1.23,1.23,0,0,0,.6-.07.66.66,0,0,0,.4-.43.67.67,0,0,0-.23-.65,1.57,1.57,0,0,0-.64-.33,1.86,1.86,0,0,0-.62-.09c-.4,0-.75.23-.77.65s.34.61.59.73A2,2,0,0,0,181.83,245.62Z"/><path class="cls-70" d="M189.33,242.58a1.11,1.11,0,0,0,.6,0,.68.68,0,0,0,.46-.38.69.69,0,0,0-.14-.67,1.65,1.65,0,0,0-.6-.41,1.59,1.59,0,0,0-.6-.17.72.72,0,0,0-.85.54c-.06.32.25.65.49.8A1.84,1.84,0,0,0,189.33,242.58Z"/><path class="cls-70" d="M181.44,239.11a1.46,1.46,0,0,0,.69,0,.76.76,0,0,0,.51-.43.78.78,0,0,0-.16-.77,1.75,1.75,0,0,0-.67-.46,2.1,2.1,0,0,0-.69-.2.82.82,0,0,0-1,.61c-.07.37.28.74.55.92A2.66,2.66,0,0,0,181.44,239.11Z"/><path class="cls-70" d="M171.77,234.68a1.21,1.21,0,0,0,.68,0,.75.75,0,0,0,.52-.43.81.81,0,0,0-.16-.77,2.38,2.38,0,0,0-1.36-.65.81.81,0,0,0-1,.61c-.07.36.29.74.55.91A2.31,2.31,0,0,0,171.77,234.68Z"/><path class="cls-70" d="M164.54,231.38a1.47,1.47,0,0,0,.69,0,.7.7,0,0,0,.35-1.2,1.75,1.75,0,0,0-.67-.46,2.1,2.1,0,0,0-.69-.2.82.82,0,0,0-1,.61c-.07.37.29.74.55.92A2.66,2.66,0,0,0,164.54,231.38Z"/><path class="cls-70" d="M196.44,245.33a1.15,1.15,0,0,0,.61,0,.64.64,0,0,0,.45-.38.69.69,0,0,0-.14-.67,1.53,1.53,0,0,0-.59-.41,2.13,2.13,0,0,0-.61-.17.71.71,0,0,0-.84.54c-.06.32.25.65.48.8A2,2,0,0,0,196.44,245.33Z"/><path class="cls-70" d="M188.2,249.05a1.23,1.23,0,0,0,.6-.07.67.67,0,0,0,.4-.44.71.71,0,0,0-.23-.65,1.55,1.55,0,0,0-.64-.32,1.86,1.86,0,0,0-.62-.09c-.41,0-.75.22-.77.64s.33.61.58.74A2.38,2.38,0,0,0,188.2,249.05Z"/><path class="cls-70" d="M181.13,252.13a1.2,1.2,0,0,0,.59-.14.74.74,0,0,0,.34-.49.7.7,0,0,0-.32-.61,1.63,1.63,0,0,0-.68-.24,1.9,1.9,0,0,0-.63,0,.72.72,0,0,0-.67.75c0,.32.41.56.68.64A1.81,1.81,0,0,0,181.13,252.13Z"/><path class="cls-70" d="M168,251.94a1.55,1.55,0,0,0,.71-.08.82.82,0,0,0,.47-.51.86.86,0,0,0-.27-.77,1.76,1.76,0,0,0-.76-.38,2.27,2.27,0,0,0-.73-.11.85.85,0,0,0-.9.76c0,.39.39.72.69.86A2.47,2.47,0,0,0,168,251.94Z"/><path class="cls-70" d="M164.39,239.41a1.42,1.42,0,0,0,.71-.06.77.77,0,0,0,.49-.49.82.82,0,0,0-.24-.78,1.86,1.86,0,0,0-.74-.41,2,2,0,0,0-.73-.13.84.84,0,0,0-.93.72c0,.39.37.74.66.89A2.39,2.39,0,0,0,164.39,239.41Z"/><path class="cls-70" d="M174.73,241a1.33,1.33,0,0,0,.71-.05.76.76,0,0,0,.48-.49.82.82,0,0,0-.24-.78,1.86,1.86,0,0,0-.74-.41,2,2,0,0,0-.72-.13c-.47,0-.89.22-.93.72s.36.73.65.89A2.43,2.43,0,0,0,174.73,241Z"/><path class="cls-70" d="M176.14,217.9a1.45,1.45,0,0,1,.33.64.74.74,0,0,1-1,.87,1.71,1.71,0,0,1-.73-.41,2.23,2.23,0,0,1-.5-.56.85.85,0,0,1,.14-1.17,1.07,1.07,0,0,1,1.09.1A2.31,2.31,0,0,1,176.14,217.9Z"/><path class="cls-70" d="M185.64,225.84a1.35,1.35,0,0,1,.32.63.76.76,0,0,1-.16.67.82.82,0,0,1-.79.2,1.8,1.8,0,0,1-.74-.41,2.13,2.13,0,0,1-.49-.55.85.85,0,0,1,.13-1.18,1.09,1.09,0,0,1,1.1.1A2.32,2.32,0,0,1,185.64,225.84Z"/><path class="cls-70" d="M178.75,225a1.41,1.41,0,0,1,.4.59.8.8,0,0,1-.08.69.83.83,0,0,1-.76.29,1.77,1.77,0,0,1-.78-.32,2.16,2.16,0,0,1-.56-.48.85.85,0,0,1,0-1.18,1.06,1.06,0,0,1,1.1,0A2.42,2.42,0,0,1,178.75,225Z"/><path class="cls-70" d="M187.4,233.44a1.21,1.21,0,0,1,.34.5.65.65,0,0,1-.07.59.67.67,0,0,1-.64.25,1.47,1.47,0,0,1-.66-.27,2.12,2.12,0,0,1-.48-.41.72.72,0,0,1,0-1,1,1,0,0,1,.94,0A2,2,0,0,1,187.4,233.44Z"/><path class="cls-70" d="M194.16,236a1.21,1.21,0,0,1,.34.5.68.68,0,0,1-.07.59.72.72,0,0,1-.64.25,1.64,1.64,0,0,1-.67-.27,2.08,2.08,0,0,1-.47-.42.71.71,0,0,1,0-1c.23-.23.68-.14.93,0A1.93,1.93,0,0,1,194.16,236Z"/><path class="cls-70" d="M191.87,228.66a1.11,1.11,0,0,1,.27.54.65.65,0,0,1-.14.57.69.69,0,0,1-.67.16,1.48,1.48,0,0,1-.63-.36,1.55,1.55,0,0,1-.41-.47.71.71,0,0,1,.12-1,.9.9,0,0,1,.93.09A1.93,1.93,0,0,1,191.87,228.66Z"/><path class="cls-70" d="M183.15,218.86a1.38,1.38,0,0,1,.4.59.76.76,0,0,1-.08.69.82.82,0,0,1-.76.3,1.9,1.9,0,0,1-.78-.32,2.2,2.2,0,0,1-.56-.49.85.85,0,0,1,0-1.18,1.11,1.11,0,0,1,1.1,0A2.65,2.65,0,0,1,183.15,218.86Z"/><path class="cls-70" d="M171.3,224.31a1.42,1.42,0,0,1,.42.58.8.8,0,0,1-.05.69.83.83,0,0,1-.75.32,1.76,1.76,0,0,1-.79-.29,2,2,0,0,1-.58-.46.84.84,0,0,1-.06-1.18,1.08,1.08,0,0,1,1.1-.08A2.42,2.42,0,0,1,171.3,224.31Z"/><path class="cls-70" d="M179.16,231.3a1.39,1.39,0,0,1,.43.57.79.79,0,0,1-.06.7.82.82,0,0,1-.74.32,1.8,1.8,0,0,1-.8-.29,2.3,2.3,0,0,1-.57-.46.84.84,0,0,1-.06-1.18c.26-.28.79-.2,1.1-.08A2.37,2.37,0,0,1,179.16,231.3Z"/></g><path class="cls-71" d="M201,238a9.23,9.23,0,0,1-1.31,10.58c-2.27,2.49-5.39,3.38-8.09,4.17l-1.61.43a24.39,24.39,0,0,1,.22-3.71c.7-7.84-2.29-15.72-7-22a55.23,55.23,0,0,0-13.06-12,14,14,0,0,1,5.71-2.36C187.9,211.23,199.43,235.1,201,238Z"/><path class="cls-72" d="M158,234.6a8.4,8.4,0,0,1,3.49,4.58c.85,2.38,1.22,5,2.61,7.1,1.64,2.49,4.49,3.92,7.38,4.65a20.32,20.32,0,0,1,3.57,1,4.23,4.23,0,0,1,2.45,2.65.24.24,0,0,1,0,.08c-1.34,0-2.69,0-4-.07-5-.22-10.55-1.14-13.79-5a13.2,13.2,0,0,1-2.74-9.25A26.22,26.22,0,0,1,158,234.6Z"/><path class="cls-73" d="M63.59,212.1a6.44,6.44,0,0,0-4.25,4.8,5.92,5.92,0,0,0,2.42,6,4.66,4.66,0,0,0-.34,5.76,7.36,7.36,0,0,0,5.1,3.05,6.14,6.14,0,0,0,.6,6.55c1.45,1.74,3.8,3.11,6.15,2.49-.17.83,1.11,4.13,4.76,4.45a6.34,6.34,0,0,0,6-3.8c1.5,1.56,4.85,1.14,6.69-.3s2.93-4,2.38-6c2-.54,5-1.59,5.49-5.53a6.57,6.57,0,0,0-3.76-6.69,7.15,7.15,0,0,0,1-7.3,5,5,0,0,0-6.41-2.29c.53-1.85.35-5.28-2.36-6.91-2.32-1.39-5.33-.79-6.13,0a4.14,4.14,0,0,0-3.76-3.58,4.61,4.61,0,0,0-4.48,2.88c-1.46-.68-4.21-1.64-6.86.07S63.23,210.26,63.59,212.1Z"/><g class="cls-74"><path class="cls-75" d="M63.59,212.1a6.44,6.44,0,0,0-4.25,4.8,5.92,5.92,0,0,0,2.42,6,4.66,4.66,0,0,0-.34,5.76,7.36,7.36,0,0,0,5.1,3.05,6.14,6.14,0,0,0,.6,6.55c1.45,1.74,3.8,3.11,6.15,2.49-.17.83,1.11,4.13,4.76,4.45a6.34,6.34,0,0,0,6-3.8c1.5,1.56,4.85,1.14,6.69-.3s2.93-4,2.38-6c2-.54,5-1.59,5.49-5.53a6.57,6.57,0,0,0-3.76-6.69,7.15,7.15,0,0,0,1-7.3,5,5,0,0,0-6.41-2.29c.53-1.85.35-5.28-2.36-6.91-2.32-1.39-5.33-.79-6.13,0a4.14,4.14,0,0,0-3.76-3.58,4.61,4.61,0,0,0-4.48,2.88c-1.46-.68-4.21-1.64-6.86.07S63.23,210.26,63.59,212.1Z"/></g><path class="cls-76" d="M80.86,206.44c.8-.8,3.81-1.4,6.13,0,2.71,1.64,2.89,5,2.36,6.91a5,5,0,0,1,6.41,2.29,7.13,7.13,0,0,1-1,7.3,6.57,6.57,0,0,1,3.76,6.69,5.83,5.83,0,0,1-4.07,5.07,5.68,5.68,0,0,0,.22-1.06,6.6,6.6,0,0,0-3.77-6.7,7.13,7.13,0,0,0,1-7.29,5,5,0,0,0-6.42-2.3c.54-1.85.36-5.27-2.35-6.9-2.33-1.38-5.32-.79-6.13,0a4.14,4.14,0,0,0-3.75-3.58,4.62,4.62,0,0,0-4.49,2.88,7.47,7.47,0,0,0-5.21-.66,4.89,4.89,0,0,1,2.21-3.27c2.65-1.72,5.39-.76,6.86-.08a4.59,4.59,0,0,1,4.48-2.88A4.13,4.13,0,0,1,80.86,206.44Z"/><g class="cls-77"><path class="cls-78" d="M74.74,234.88a5.08,5.08,0,0,0,3.78,1.64,5.13,5.13,0,0,0,3.75-1.74"/><path class="cls-78" d="M67.93,222.14a4,4,0,0,0,2.54-3.26,5.89,5.89,0,0,0-1.1-4.11"/><path class="cls-78" d="M81.13,221.66a2.57,2.57,0,0,0-.29,2.62,3.79,3.79,0,0,0,2,1.86"/></g><path class="cls-73" d="M127.28,229.68a5,5,0,0,0,2.35,4.38,4.6,4.6,0,0,0,5-.14,3.6,3.6,0,0,0,4.09,1.79,5.73,5.73,0,0,0,3.6-2.89,4.73,4.73,0,0,0,4.92,1.32,4.84,4.84,0,0,0,3.46-3.8,3.89,3.89,0,0,0,4.52-2.26,4.93,4.93,0,0,0-1.16-5.38c1.54-.67,2.14-3.22,1.58-4.94a4.77,4.77,0,0,0-3.71-3.34c.15-1.61.19-4.08-2.55-5.48a5.1,5.1,0,0,0-5.88.94,5.5,5.5,0,0,0-5-2.65,3.88,3.88,0,0,0-3.39,4.05c-1.21-.89-3.74-1.68-5.66-.14-1.63,1.31-2,3.66-1.64,4.46a3.2,3.2,0,0,0-3.61,1.77,3.56,3.56,0,0,0,.89,4,5.39,5.39,0,0,0-1.79,5A4.49,4.49,0,0,0,127.28,229.68Z"/><g class="cls-74"><path class="cls-75" d="M127.28,229.68a5,5,0,0,0,2.35,4.38,4.6,4.6,0,0,0,5-.14,3.6,3.6,0,0,0,4.09,1.79,5.73,5.73,0,0,0,3.6-2.89,4.73,4.73,0,0,0,4.92,1.32,4.84,4.84,0,0,0,3.46-3.8,3.89,3.89,0,0,0,4.52-2.26,4.93,4.93,0,0,0-1.16-5.38c1.54-.67,2.14-3.22,1.58-4.94a4.77,4.77,0,0,0-3.71-3.34c.15-1.61.19-4.08-2.55-5.48a5.1,5.1,0,0,0-5.88.94,5.5,5.5,0,0,0-5-2.65,3.88,3.88,0,0,0-3.39,4.05c-1.21-.89-3.74-1.68-5.66-.14-1.63,1.31-2,3.66-1.64,4.46a3.2,3.2,0,0,0-3.61,1.77,3.56,3.56,0,0,0,.89,4,5.39,5.39,0,0,0-1.79,5A4.49,4.49,0,0,0,127.28,229.68Z"/></g><path class="cls-79" d="M127.8,215.59a4.63,4.63,0,0,1,1.64-4.46c1.92-1.53,4.45-.74,5.66.15a3.89,3.89,0,0,1,3.39-4.06,5.54,5.54,0,0,1,5,2.65,5.12,5.12,0,0,1,5.88-.93,4.54,4.54,0,0,1,2.6,4.32,4.6,4.6,0,0,0-.72-.44,5.12,5.12,0,0,0-5.88.94,5.55,5.55,0,0,0-5-2.65,3.9,3.9,0,0,0-3.4,4c-1.2-.89-3.73-1.67-5.65-.14a4.64,4.64,0,0,0-1.64,4.46,3.21,3.21,0,0,0-3.61,1.77,3.59,3.59,0,0,0,.89,4,5.85,5.85,0,0,0-1.88,3.61,3.85,3.85,0,0,1-1.79-2.49,5.4,5.4,0,0,1,1.79-5,3.54,3.54,0,0,1-.89-4A3.21,3.21,0,0,1,127.8,215.59Z"/><g class="cls-77"><path class="cls-80" d="M146.85,227.69a4,4,0,0,0,2.21-2.31,4,4,0,0,0-.26-3.2"/><path class="cls-80" d="M135.75,229.22a3.12,3.12,0,0,0-1.69-2.72,4.56,4.56,0,0,0-3.29-.31"/><path class="cls-80" d="M138.94,219.49a2,2,0,0,0,1.83.91,2.91,2.91,0,0,0,1.89-.94"/></g><path class="cls-81" d="M123.53,204.34a8.06,8.06,0,0,0,4.55,2.75,9.1,9.1,0,0,0,4.46.09c3.64-.91,6.41-4.87,6.23-8.82a8.7,8.7,0,0,0-6.92-8C123.74,188.89,118.91,198.29,123.53,204.34Z"/><path class="cls-82" d="M136.52,196.64a3.42,3.42,0,0,0-.21,1.2,5.33,5.33,0,0,0,.09,1.07c.18.84.67,1.34,1.1,1.13s.73-1.07.72-2C138.2,196.07,137.07,195.29,136.52,196.64Z"/><path class="cls-83" d="M132.54,207.18a9.22,9.22,0,0,1-4.46-.09,8,8,0,0,1-4.55-2.75,8.45,8.45,0,0,1-1.43-2.84,16.41,16.41,0,0,0,8.47,2.93,16.19,16.19,0,0,0,6.92-1.16A8.24,8.24,0,0,1,132.54,207.18Z"/><path class="cls-84" d="M137.51,194.36c-.15-.1-.32-.19-.47-.28a15.48,15.48,0,0,0-7.39-2.41,9.37,9.37,0,0,0-5.46,1.58c-.29.21-.61.57-.93.76a8.22,8.22,0,0,1,8.6-3.65A8.49,8.49,0,0,1,137.51,194.36Z"/><path class="cls-85" d="M175.06,172.14a13.75,13.75,0,0,0,6.46-3.4,13.4,13.4,0,0,0,2.55-3.68,16.69,16.69,0,0,0,.81-12.15,15.79,15.79,0,0,0-10.54,8.14,10.11,10.11,0,0,0-1.23,4.18C173,167.67,174,169.94,175.06,172.14Z"/><path class="cls-12" d="M175.06,172.14a13.75,13.75,0,0,0,6.46-3.4,13.4,13.4,0,0,0,2.55-3.68,16.69,16.69,0,0,0,.81-12.15,15.79,15.79,0,0,0-10.54,8.14,10.11,10.11,0,0,0-1.23,4.18C173,167.67,174,169.94,175.06,172.14Z"/><g class="cls-3"><path class="cls-86" d="M175.3,171.82q4.06-9.13,9-17.85"/><path class="cls-86" d="M183.1,164.16a18.89,18.89,0,0,1-5.84,3.39"/><path class="cls-86" d="M184.56,159.36a10.07,10.07,0,0,1-4.43,2.47"/><path class="cls-86" d="M178.15,165.55a10.61,10.61,0,0,1-2.12-4.62"/><path class="cls-86" d="M181.16,159.72a13.47,13.47,0,0,1-1.42-4"/></g><path class="cls-87" d="M152.16,167.45a18,18,0,0,0,22.52,3.74,8.45,8.45,0,0,0-2.81-3.57,16.42,16.42,0,0,0-10.08-3.45A15.07,15.07,0,0,0,152.16,167.45Z"/><g class="cls-67"><path class="cls-88" d="M174.38,171.16q-9.75-2.21-19.67-3.47"/><path class="cls-88" d="M163.58,172.82a18.84,18.84,0,0,0,6.2-2.64"/><path class="cls-88" d="M158.87,171.12a10,10,0,0,0,4.62-2.08"/><path class="cls-88" d="M167.65,169.69a10.49,10.49,0,0,0-2.2-4.53"/><path class="cls-88" d="M161.32,168.57a12.21,12.21,0,0,0-2.34-3.28"/></g><path class="cls-89" d="M161.58,176a15.54,15.54,0,0,0-4.2,10.53c.2,5.91,4.62,10.76,9.1,14.62a65.45,65.45,0,0,0,18,11.41c3.06,1.23,6.59,2.68,10.5,2a10.84,10.84,0,0,0,8.88-8.82c.74-3.82,7.43-34.22-5.19-41.24-5.92-3.29-13.14-1.95-18.25-.1C174,166.7,166.17,170.74,161.58,176Z"/><g class="cls-53"><path class="cls-90" d="M162.7,177.4a1,1,0,0,1-.34.9,1,1,0,0,1-.81.1,1.74,1.74,0,0,1-.7-.47,2.67,2.67,0,0,1-.4-.55c.35-.48.73-1,1.13-1.41l.13-.15,0,0a2.54,2.54,0,0,1,.57.65A2.1,2.1,0,0,1,162.7,177.4Z"/><path class="cls-90" d="M189.11,162.53a3,3,0,0,1,.25.73,1.83,1.83,0,0,1,0,.84.93.93,0,0,1-.56.6,1,1,0,0,1-.92-.25,2.09,2.09,0,0,1-.52-.84,2.46,2.46,0,0,1-.2-.85v0C187.79,162.63,188.45,162.56,189.11,162.53Z"/><path class="cls-90" d="M161.84,186.5a1.59,1.59,0,0,0,.76.34.94.94,0,0,0,.79-.23,1,1,0,0,0,.19-.94,2.14,2.14,0,0,0-.53-.84,2.65,2.65,0,0,0-.67-.54,1,1,0,0,0-1.37.22,1.26,1.26,0,0,0,.17,1.28A3,3,0,0,0,161.84,186.5Z"/><path class="cls-90" d="M171.66,197.2a1.7,1.7,0,0,0,.76.35.94.94,0,0,0,.79-.23,1,1,0,0,0,.19-.94,2.14,2.14,0,0,0-.53-.84,2.78,2.78,0,0,0-.68-.55,1,1,0,0,0-1.36.22,1.28,1.28,0,0,0,.17,1.29A2.75,2.75,0,0,0,171.66,197.2Z"/><path class="cls-90" d="M170.29,189.17a1.64,1.64,0,0,0,.72.44.94.94,0,0,0,.8-.13,1,1,0,0,0,.31-.91,2.19,2.19,0,0,0-.42-.9,2.57,2.57,0,0,0-.6-.63,1,1,0,0,0-1.39.05,1.29,1.29,0,0,0,0,1.29A2.77,2.77,0,0,0,170.29,189.17Z"/><path class="cls-90" d="M180.68,198.86a1.38,1.38,0,0,0,.61.37.75.75,0,0,0,.68-.11.83.83,0,0,0,.26-.77,1.72,1.72,0,0,0-.36-.76,2,2,0,0,0-.51-.54.84.84,0,0,0-1.17,0,1.06,1.06,0,0,0,0,1.1A2.28,2.28,0,0,0,180.68,198.86Z"/><path class="cls-90" d="M189.81,201.5a1.41,1.41,0,0,0,.55.45.79.79,0,0,0,.69,0,.81.81,0,0,0,.36-.73,1.67,1.67,0,0,0-.25-.81,2.08,2.08,0,0,0-.43-.59.83.83,0,0,0-1.17-.12,1.09,1.09,0,0,0-.14,1.09A2.57,2.57,0,0,0,189.81,201.5Z"/><path class="cls-90" d="M185.05,192.56a1.66,1.66,0,0,0,.63.52.91.91,0,0,0,.79,0,1,1,0,0,0,.41-.83,2.12,2.12,0,0,0-.29-.91,2.57,2.57,0,0,0-.49-.68,1,1,0,0,0-1.34-.13c-.33.28-.27.88-.15,1.24A2.82,2.82,0,0,0,185.05,192.56Z"/><path class="cls-90" d="M179.34,181.45a1.56,1.56,0,0,0,.62.52.84.84,0,0,0,1.2-.85,2,2,0,0,0-.29-.92,2.36,2.36,0,0,0-.49-.68,1,1,0,0,0-1.33-.13,1.23,1.23,0,0,0-.16,1.24A2.52,2.52,0,0,0,179.34,181.45Z"/><path class="cls-90" d="M175.07,173.16a1.54,1.54,0,0,0,.62.51.88.88,0,0,0,.79,0,.94.94,0,0,0,.41-.83,1.88,1.88,0,0,0-.29-.91,2.36,2.36,0,0,0-.49-.68,1,1,0,0,0-1.33-.14,1.27,1.27,0,0,0-.16,1.25A2.75,2.75,0,0,0,175.07,173.16Z"/><path class="cls-90" d="M194.38,209.2a1.41,1.41,0,0,0,.55.45.73.73,0,0,0,1-.75,1.67,1.67,0,0,0-.25-.8,2.13,2.13,0,0,0-.43-.6.84.84,0,0,0-1.17-.12,1.11,1.11,0,0,0-.14,1.1A2.52,2.52,0,0,0,194.38,209.2Z"/><path class="cls-90" d="M184.07,206.65a1.48,1.48,0,0,0,.61.37.73.73,0,0,0,.94-.88,1.86,1.86,0,0,0-.35-.77,2.34,2.34,0,0,0-.51-.53.83.83,0,0,0-1.18,0,1.11,1.11,0,0,0,0,1.1A2.42,2.42,0,0,0,184.07,206.65Z"/><path class="cls-90" d="M175.31,204.36a1.32,1.32,0,0,0,.65.29.76.76,0,0,0,.66-.2.82.82,0,0,0,.16-.8,1.81,1.81,0,0,0-.46-.71,2.1,2.1,0,0,0-.57-.46.84.84,0,0,0-1.16.2c-.22.32,0,.81.15,1.09A2.66,2.66,0,0,0,175.31,204.36Z"/><path class="cls-90" d="M163.35,194.67a1.81,1.81,0,0,0,.71.44.94.94,0,0,0,.81-.14,1,1,0,0,0,.3-.9,2.07,2.07,0,0,0-.42-.9,2.4,2.4,0,0,0-.6-.63,1,1,0,0,0-1.38.05,1.27,1.27,0,0,0,0,1.29A3.18,3.18,0,0,0,163.35,194.67Z"/><path class="cls-90" d="M169.1,180.46a1.55,1.55,0,0,0,.69.47.92.92,0,0,0,.81-.1,1,1,0,0,0,.34-.89,2.07,2.07,0,0,0-.38-.92,2.56,2.56,0,0,0-.58-.65,1,1,0,0,0-1.38,0,1.29,1.29,0,0,0,0,1.3A2.69,2.69,0,0,0,169.1,180.46Z"/><path class="cls-90" d="M177.48,189.44a1.73,1.73,0,0,0,.69.47.93.93,0,0,0,.81-.11,1,1,0,0,0,.34-.89,2.09,2.09,0,0,0-.38-.91,2.26,2.26,0,0,0-.58-.65,1,1,0,0,0-1.38,0,1.27,1.27,0,0,0,0,1.29A2.73,2.73,0,0,0,177.48,189.44Z"/><path class="cls-90" d="M195.55,169.15a1.65,1.65,0,0,1-.16.82.9.9,0,0,1-.64.5,1,1,0,0,1-.87-.39,2.14,2.14,0,0,1-.38-.92,2.48,2.48,0,0,1-.05-.86c.07-.55.39-1,1-1s.8.53.94.89A2.56,2.56,0,0,1,195.55,169.15Z"/><path class="cls-90" d="M198.56,183.36a1.65,1.65,0,0,1-.16.82.92.92,0,0,1-.64.5,1,1,0,0,1-.88-.38,2.11,2.11,0,0,1-.37-.92,2.56,2.56,0,0,1-.06-.87c.08-.55.39-1,1-1s.8.53.94.89A3.09,3.09,0,0,1,198.56,183.36Z"/><path class="cls-90" d="M192.82,177.58a1.66,1.66,0,0,1-.06.83.91.91,0,0,1-.58.58,1,1,0,0,1-.91-.28,2.1,2.1,0,0,1-.49-.86,2.51,2.51,0,0,1-.16-.85c0-.56.26-1,.84-1.1s.87.42,1,.76A3,3,0,0,1,192.82,177.58Z"/><path class="cls-90" d="M194.67,191.66a1.54,1.54,0,0,1,0,.71.77.77,0,0,1-.49.49.82.82,0,0,1-.78-.23,1.89,1.89,0,0,1-.41-.73,2.06,2.06,0,0,1-.14-.73c0-.47.22-.88.71-.93s.74.36.89.64A2.78,2.78,0,0,1,194.67,191.66Z"/><path class="cls-90" d="M199,199a1.33,1.33,0,0,1-.05.71.79.79,0,0,1-.49.49.83.83,0,0,1-.78-.24,1.75,1.75,0,0,1-.41-.73,2.3,2.3,0,0,1-.14-.73c0-.47.22-.88.72-.93s.73.36.89.65A2.39,2.39,0,0,1,199,199Z"/><path class="cls-90" d="M202.27,190.49a1.41,1.41,0,0,1-.15.7.79.79,0,0,1-.55.42.82.82,0,0,1-.74-.34,1.91,1.91,0,0,1-.31-.78,2,2,0,0,1,0-.74c.07-.46.34-.84.83-.83s.68.46.8.76A2.48,2.48,0,0,1,202.27,190.49Z"/><path class="cls-90" d="M201.33,175.12a1.71,1.71,0,0,1-.06.84.91.91,0,0,1-.58.57,1,1,0,0,1-.91-.27,2.14,2.14,0,0,1-.49-.87,2.46,2.46,0,0,1-.16-.85,1,1,0,0,1,.84-1.1c.45,0,.86.42,1.05.76A3,3,0,0,1,201.33,175.12Z"/><path class="cls-90" d="M186.43,171.55a1.67,1.67,0,0,1,0,.83.89.89,0,0,1-.55.6,1,1,0,0,1-.92-.24,2.11,2.11,0,0,1-.53-.84,2.83,2.83,0,0,1-.19-.85,1,1,0,0,1,.8-1.13c.45-.07.88.39,1.07.72A2.73,2.73,0,0,1,186.43,171.55Z"/><path class="cls-90" d="M188.62,183.71a1.79,1.79,0,0,1,0,.83.93.93,0,0,1-.56.6,1,1,0,0,1-.92-.24,2.11,2.11,0,0,1-.53-.84,2.76,2.76,0,0,1-.19-.85,1,1,0,0,1,.8-1.13c.45-.06.88.39,1.07.72A2.73,2.73,0,0,1,188.62,183.71Z"/></g><path class="cls-91" d="M203.83,205.74a10.83,10.83,0,0,1-8.89,8.82c-3.9.65-7.43-.8-10.49-2-.61-.24-1.2-.49-1.8-.77a29.47,29.47,0,0,1,2.89-3.25c6.34-6.74,9.31-16.18,9.48-25.43a65.09,65.09,0,0,0-3.36-20.54,16.44,16.44,0,0,1,7,2C211.26,171.52,204.56,201.92,203.83,205.74Z"/><path class="cls-92" d="M166.72,171.41a9.89,9.89,0,0,1-.11,6.76c-.94,2.82-2.5,5.48-2.75,8.45-.29,3.48,1.31,6.88,3.44,9.64a25.14,25.14,0,0,1,2.56,3.55,5,5,0,0,1,.34,4.21.36.36,0,0,1,0,.09c-1.24-1-2.47-2-3.66-3-4.49-3.86-8.91-8.7-9.11-14.62a15.54,15.54,0,0,1,4.2-10.53A30,30,0,0,1,166.72,171.41Z"/><path class="cls-93" d="M183.65,245.31a6.49,6.49,0,0,0,3.86-5.13,6,6,0,0,0-2.9-5.82,4.64,4.64,0,0,0-.13-5.76,7.34,7.34,0,0,0-5.32-2.64,6.14,6.14,0,0,0-1.12-6.48c-1.58-1.62-4-2.79-6.33-2,.1-.84-1.44-4-5.1-4.05A6.34,6.34,0,0,0,161,217.7c-1.62-1.44-4.93-.75-6.64.84s-2.6,4.21-1.89,6.14c-2,.71-4.88,2-5,6a6.59,6.59,0,0,0,4.29,6.37,7.14,7.14,0,0,0-.37,7.35,5,5,0,0,0,6.58,1.77c-.39,1.89.06,5.29,2.9,6.69,2.43,1.21,5.38.37,6.11-.5a4.16,4.16,0,0,0,4,3.28,4.63,4.63,0,0,0,4.24-3.23c1.51.56,4.33,1.29,6.83-.63S184.16,247.11,183.65,245.31Z"/><g class="cls-74"><path class="cls-94" d="M183.65,245.31a6.49,6.49,0,0,0,3.86-5.13,6,6,0,0,0-2.9-5.82,4.64,4.64,0,0,0-.13-5.76,7.34,7.34,0,0,0-5.32-2.64,6.14,6.14,0,0,0-1.12-6.48c-1.58-1.62-4-2.79-6.33-2,.1-.84-1.44-4-5.1-4.05A6.34,6.34,0,0,0,161,217.7c-1.62-1.44-4.93-.75-6.64.84s-2.6,4.21-1.89,6.14c-2,.71-4.88,2-5,6a6.59,6.59,0,0,0,4.29,6.37,7.14,7.14,0,0,0-.37,7.35,5,5,0,0,0,6.58,1.77c-.39,1.89.06,5.29,2.9,6.69,2.43,1.21,5.38.37,6.11-.5a4.16,4.16,0,0,0,4,3.28,4.63,4.63,0,0,0,4.24-3.23c1.51.56,4.33,1.29,6.83-.63S184.16,247.11,183.65,245.31Z"/></g><path class="cls-95" d="M166.88,252.32c-.72.87-3.67,1.71-6.1.5-2.84-1.41-3.29-4.8-2.9-6.69a5,5,0,0,1-6.58-1.78,7.12,7.12,0,0,1,.36-7.34,6.59,6.59,0,0,1-4.28-6.37,5.84,5.84,0,0,1,3.65-5.38,6,6,0,0,0-.13,1.08,6.61,6.61,0,0,0,4.3,6.37,7.12,7.12,0,0,0-.37,7.34,5,5,0,0,0,6.58,1.78c-.39,1.89.06,5.28,2.9,6.69,2.43,1.2,5.37.36,6.11-.5a4.14,4.14,0,0,0,4,3.27,4.63,4.63,0,0,0,4.25-3.23,7.51,7.51,0,0,0,5.24.24,4.92,4.92,0,0,1-1.94,3.44c-2.5,1.92-5.32,1.19-6.84.63a4.57,4.57,0,0,1-4.22,3.22A4.15,4.15,0,0,1,166.88,252.32Z"/><g class="cls-77"><path class="cls-96" d="M170.72,223.49a5,5,0,0,0-7.5.7"/><path class="cls-96" d="M178.52,235.64a4.05,4.05,0,0,0-2.27,3.46,5.94,5.94,0,0,0,1.42,4"/><path class="cls-96" d="M165.4,237.18a2.58,2.58,0,0,0,.08-2.64,3.82,3.82,0,0,0-2.12-1.7"/></g><path class="cls-93" d="M68,192.37a6.43,6.43,0,0,0,5.7,2.93,5.94,5.94,0,0,0,5.25-3.84,4.63,4.63,0,0,0,5.65-1.09,7.34,7.34,0,0,0,1.71-5.69,6.14,6.14,0,0,0,6.19-2.21c1.34-1.83,2.07-4.44.89-6.57.85,0,3.74-2.1,3.14-5.71a6.36,6.36,0,0,0-5.16-4.86c1.15-1.84-.09-5-1.95-6.4s-4.59-1.85-6.37-.83c-1-1.82-2.78-4.47-6.72-4a6.59,6.59,0,0,0-5.56,5.31,7.09,7.09,0,0,0-7.3.88,5,5,0,0,0-.64,6.78c-1.93-.06-5.2.95-6.11,4-.77,2.59.55,5.36,1.53,5.93a4.16,4.16,0,0,0-2.55,4.53,4.63,4.63,0,0,0,3.9,3.63c-.3,1.58-.54,4.49,1.77,6.63S66.28,193.17,68,192.37Z"/><g class="cls-74"><path class="cls-94" d="M68,192.37a6.43,6.43,0,0,0,5.7,2.93,5.94,5.94,0,0,0,5.25-3.84,4.63,4.63,0,0,0,5.65-1.09,7.34,7.34,0,0,0,1.71-5.69,6.14,6.14,0,0,0,6.19-2.21c1.34-1.83,2.07-4.44.89-6.57.85,0,3.74-2.1,3.14-5.71a6.36,6.36,0,0,0-5.16-4.86c1.15-1.84-.09-5-1.95-6.4s-4.59-1.85-6.37-.83c-1-1.82-2.78-4.47-6.72-4a6.59,6.59,0,0,0-5.56,5.31,7.09,7.09,0,0,0-7.3.88,5,5,0,0,0-.64,6.78c-1.93-.06-5.2.95-6.11,4-.77,2.59.55,5.36,1.53,5.93a4.16,4.16,0,0,0-2.55,4.53,4.63,4.63,0,0,0,3.9,3.63c-.3,1.58-.54,4.49,1.77,6.63S66.28,193.17,68,192.37Z"/></g><path class="cls-97" d="M58.23,177c-1-.57-2.31-3.34-1.53-5.94.91-3,4.18-4.05,6.11-4a5,5,0,0,1,.64-6.79,7.13,7.13,0,0,1,7.3-.88,6.57,6.57,0,0,1,5.56-5.29,5.84,5.84,0,0,1,5.92,2.68,5.88,5.88,0,0,0-1.09.06,6.59,6.59,0,0,0-5.55,5.3,7.13,7.13,0,0,0-7.3.88,5,5,0,0,0-.64,6.79c-1.93-.06-5.2.95-6.11,4-.77,2.59.55,5.35,1.52,5.93a4.16,4.16,0,0,0-2.54,4.53,4.64,4.64,0,0,0,3.9,3.63,7.53,7.53,0,0,0,.65,5.21,4.93,4.93,0,0,1-3.72-1.33,7,7,0,0,1-1.77-6.63,4.58,4.58,0,0,1-3.89-3.63A4.12,4.12,0,0,1,58.23,177Z"/><g class="cls-77"><path class="cls-96" d="M87.3,175.94a5.05,5.05,0,0,0-2-7.28"/><path class="cls-96" d="M76.64,185.68A4.05,4.05,0,0,0,72.85,184a5.9,5.9,0,0,0-3.72,2.07"/><path class="cls-96" d="M72.9,173a2.56,2.56,0,0,0,2.61-.37,3.78,3.78,0,0,0,1.32-2.37"/></g><path class="cls-93" d="M146.34,195.31a6.44,6.44,0,0,0,5.43-3.42,5.92,5.92,0,0,0-.62-6.46,4.65,4.65,0,0,0,1.94-5.43,7.36,7.36,0,0,0-4-4.37,6.13,6.13,0,0,0,1.26-6.45c-.89-2.08-2.76-4.05-5.19-4.12.4-.75.1-4.28-3.31-5.61a6.33,6.33,0,0,0-6.81,2c-1-1.92-4.34-2.46-6.5-1.59s-3.94,3-4,5.06c-2.09-.05-5.26.11-6.83,3.76a6.57,6.57,0,0,0,1.72,7.48,7.12,7.12,0,0,0-3,6.73,5,5,0,0,0,5.5,4c-1,1.62-1.83,5,.32,7.29,1.83,2,4.89,2.26,5.88,1.72a4.16,4.16,0,0,0,2.59,4.5,4.64,4.64,0,0,0,5.12-1.5c1.21,1.06,3.58,2.75,6.6,1.86C145.34,199.88,146.16,197.17,146.34,195.31Z"/><g class="cls-74"><path class="cls-94" d="M146.34,195.31a6.44,6.44,0,0,0,5.43-3.42,5.92,5.92,0,0,0-.62-6.46,4.65,4.65,0,0,0,1.94-5.43,7.36,7.36,0,0,0-4-4.37,6.13,6.13,0,0,0,1.26-6.45c-.89-2.08-2.76-4.05-5.19-4.12.4-.75.1-4.28-3.31-5.61a6.33,6.33,0,0,0-6.81,2c-1-1.92-4.34-2.46-6.5-1.59s-3.94,3-4,5.06c-2.09-.05-5.26.11-6.83,3.76a6.57,6.57,0,0,0,1.72,7.48,7.12,7.12,0,0,0-3,6.73,5,5,0,0,0,5.5,4c-1,1.62-1.83,5,.32,7.29,1.83,2,4.89,2.26,5.88,1.72a4.16,4.16,0,0,0,2.59,4.5,4.64,4.64,0,0,0,5.12-1.5c1.21,1.06,3.58,2.75,6.6,1.86C145.34,199.88,146.16,197.17,146.34,195.31Z"/></g><path class="cls-98" d="M128.17,195.86c-1,.54-4,.27-5.89-1.72-2.14-2.34-1.34-5.66-.31-7.29a5,5,0,0,1-5.5-4,7.11,7.11,0,0,1,3-6.72,6.59,6.59,0,0,1-1.72-7.48,5.83,5.83,0,0,1,5.33-3.72,6.5,6.5,0,0,0,1.22,8.44,7.15,7.15,0,0,0-3,6.73,5,5,0,0,0,5.51,4c-1,1.62-1.83,5,.31,7.28,1.84,2,4.88,2.26,5.88,1.72a4.15,4.15,0,0,0,2.59,4.5,4.63,4.63,0,0,0,5.12-1.5,7.55,7.55,0,0,0,4.81,2.1,4.92,4.92,0,0,1-3,2.52c-3,.89-5.39-.8-6.61-1.86a4.6,4.6,0,0,1-5.1,1.5A4.14,4.14,0,0,1,128.17,195.86Z"/><g class="cls-77"><path class="cls-96" d="M142.07,170.3a5,5,0,0,0-7.25-2"/><path class="cls-96" d="M145,184.44a4,4,0,0,0-3.35,2.42,5.88,5.88,0,0,0-.11,4.25"/><path class="cls-96" d="M132.2,181.19a2.59,2.59,0,0,0,1-2.44,3.8,3.8,0,0,0-1.37-2.35"/></g><path class="cls-99" d="M139.09,256.51A9.19,9.19,0,0,0,145,255a10.48,10.48,0,0,0,3.65-3.54c2.19-3.67,1.21-9.09-2.13-12.12a9.94,9.94,0,0,0-12-.84C126.77,243.93,130.48,255.39,139.09,256.51Z"/><path class="cls-100" d="M143.29,239.83a4.06,4.06,0,0,0,.81,1.12,5.33,5.33,0,0,0,.94.79c.82.53,1.62.53,1.79,0s-.28-1.45-1-2.17C144.18,238,142.65,238.29,143.29,239.83Z"/><path class="cls-101" d="M148.62,251.5A10.6,10.6,0,0,1,145,255a9.13,9.13,0,0,1-5.87,1.47,9.67,9.67,0,0,1-3.45-1.13,18.42,18.42,0,0,0,13.79-11A9.32,9.32,0,0,1,148.62,251.5Z"/><path class="cls-102" d="M142.24,237.19l-.6.15a17.57,17.57,0,0,0-7.88,4,10.66,10.66,0,0,0-3.11,5.69,13.54,13.54,0,0,1-.14,1.37,9.4,9.4,0,0,1,4-9.9A9.71,9.71,0,0,1,142.24,237.19Z"/><path class="cls-99" d="M73.56,210.61a8.07,8.07,0,0,0-.29-5.31,9.15,9.15,0,0,0-2.44-3.74C68,199.07,63.2,199,60,201.38a8.71,8.71,0,0,0-2.73,10.22C60.67,219.13,71.16,217.84,73.56,210.61Z"/><path class="cls-100" d="M59.89,204.21a3.29,3.29,0,0,0,1.1-.51,4.71,4.71,0,0,0,.84-.68c.59-.61.73-1.3.32-1.54a2.31,2.31,0,0,0-2,.52C58.46,203.14,58.46,204.51,59.89,204.21Z"/><path class="cls-103" d="M70.83,201.57a9.18,9.18,0,0,1,2.44,3.73,8,8,0,0,1,.29,5.31A8.2,8.2,0,0,1,72,213.39a16.14,16.14,0,0,0-7.19-13.71A8.12,8.12,0,0,1,70.83,201.57Z"/><path class="cls-104" d="M57.44,204.67c0,.18,0,.37,0,.55a15.44,15.44,0,0,0,2.17,7.46A9.37,9.37,0,0,0,64,216.31c.34.12.81.18,1.16.34a8.25,8.25,0,0,1-7.87-5.06A8.56,8.56,0,0,1,57.44,204.67Z"/><path class="cls-99" d="M206.76,229.37a8.07,8.07,0,0,0-.29-5.31,9.22,9.22,0,0,0-2.44-3.73c-2.8-2.5-7.63-2.56-10.79-.19a8.71,8.71,0,0,0-2.73,10.22C193.87,237.89,204.36,236.6,206.76,229.37Z"/><path class="cls-100" d="M193.09,223a3.38,3.38,0,0,0,1.1-.51,4.71,4.71,0,0,0,.84-.68c.59-.61.72-1.3.32-1.54a2.34,2.34,0,0,0-2,.52C191.66,221.9,191.66,223.27,193.09,223Z"/><path class="cls-105" d="M204,220.33a9.18,9.18,0,0,1,2.44,3.73,8,8,0,0,1,.29,5.31,8.2,8.2,0,0,1-1.55,2.78A16.14,16.14,0,0,0,198,218.44,8.12,8.12,0,0,1,204,220.33Z"/><path class="cls-106" d="M190.64,223.43l0,.55a15.44,15.44,0,0,0,2.17,7.46,9.37,9.37,0,0,0,4.38,3.63c.34.12.81.18,1.16.34a8.26,8.26,0,0,1-7.87-5A8.58,8.58,0,0,1,190.64,223.43Z"/><path class="cls-99" d="M192,253.61a6.92,6.92,0,0,0,4,2.08,7.89,7.89,0,0,0,3.8-.19,7.58,7.58,0,0,0,4.79-7.87,7.43,7.43,0,0,0-6.35-6.41C191.24,240.45,187.67,248.73,192,253.61Z"/><path class="cls-100" d="M202.56,246.3a3.06,3.06,0,0,0-.1,1,3.84,3.84,0,0,0,.14.91c.2.7.65,1.1,1,.9a2,2,0,0,0,.5-1.73C204,245.71,203,245.12,202.56,246.3Z"/><path class="cls-107" d="M199.79,255.5a7.89,7.89,0,0,1-3.8.18,6.87,6.87,0,0,1-4-2.07,7.48,7.48,0,0,1-1.38-2.34,13.91,13.91,0,0,0,7.38,2,13.61,13.61,0,0,0,5.82-1.39A7,7,0,0,1,199.79,255.5Z"/><path class="cls-108" d="M203.27,244.3l-.41-.21a13,13,0,0,0-6.43-1.62,7.94,7.94,0,0,0-4.56,1.66,8.38,8.38,0,0,1-.75.7,7,7,0,0,1,7.11-3.61A7.25,7.25,0,0,1,203.27,244.3Z"/><path class="cls-99" d="M123.94,250a7,7,0,0,0-.62-4.49,8,8,0,0,0-2.35-3,7.59,7.59,0,0,0-9.19.62A7.41,7.41,0,0,0,110.2,252C113.59,258.14,122.41,256.29,123.94,250Z"/><path class="cls-100" d="M111.86,245.51a2.75,2.75,0,0,0,.9-.51,4,4,0,0,0,.66-.63c.46-.57.53-1.16.16-1.34s-1.1.1-1.7.59C110.57,244.71,110.66,245.87,111.86,245.51Z"/><path class="cls-109" d="M121,242.49a7.8,7.8,0,0,1,2.34,3,6.78,6.78,0,0,1,.63,4.49,7.29,7.29,0,0,1-1.12,2.48,14,14,0,0,0-2.61-7.19,13.76,13.76,0,0,0-4.49-4A6.92,6.92,0,0,1,121,242.49Z"/><path class="cls-110" d="M109.81,246.09c0,.14,0,.31.06.46a13.16,13.16,0,0,0,2.38,6.18,7.91,7.91,0,0,0,4,2.77,9.12,9.12,0,0,1,1,.22,7.05,7.05,0,0,1-7-3.74A7.27,7.27,0,0,1,109.81,246.09Z"/><path class="cls-99" d="M148.62,211.76a8.06,8.06,0,0,0,4.55,2.75,9.34,9.34,0,0,0,4.46.09c3.64-.91,6.41-4.87,6.22-8.82a8.69,8.69,0,0,0-6.91-8C148.83,196.31,144,205.71,148.62,211.76Z"/><path class="cls-100" d="M161.6,204.06a3.68,3.68,0,0,0-.2,1.2,4.74,4.74,0,0,0,.09,1.07c.18.83.67,1.34,1.1,1.13s.73-1.08.72-2C163.29,203.48,162.16,202.71,161.6,204.06Z"/><path class="cls-111" d="M157.63,214.6a9.34,9.34,0,0,1-4.46-.09,8,8,0,0,1-4.55-2.75,8.27,8.27,0,0,1-1.43-2.84,16.38,16.38,0,0,0,8.47,2.93,16.13,16.13,0,0,0,6.91-1.17A8.17,8.17,0,0,1,157.63,214.6Z"/><path class="cls-112" d="M162.59,201.78c-.14-.1-.31-.19-.46-.29a15.47,15.47,0,0,0-7.39-2.4,9.3,9.3,0,0,0-5.46,1.58,12,12,0,0,1-.94.76,8.26,8.26,0,0,1,8.61-3.66A8.52,8.52,0,0,1,162.59,201.78Z"/><path class="cls-99" d="M105,197.17a8,8,0,0,0,4.64-2.59,9.16,9.16,0,0,0,2.29-3.83c1-3.61-1.06-8-4.58-9.78A8.69,8.69,0,0,0,97,183C91.73,189.34,97.49,198.19,105,197.17Z"/><path class="cls-100" d="M104.78,182.08a3.4,3.4,0,0,0,1,.77,4.25,4.25,0,0,0,1,.45c.81.26,1.49.08,1.53-.39s-.58-1.17-1.37-1.61C105.12,180.33,103.89,180.93,104.78,182.08Z"/><path class="cls-113" d="M112,190.75a9.31,9.31,0,0,1-2.29,3.83,8,8,0,0,1-4.64,2.59,8.42,8.42,0,0,1-3.18-.16A16.2,16.2,0,0,0,111,184.52,8.19,8.19,0,0,1,112,190.75Z"/><path class="cls-114" d="M103.29,180.09l-.48.26a15.45,15.45,0,0,0-5.74,5.23,9.29,9.29,0,0,0-1.34,5.53c0,.35.19.81.2,1.19A8.24,8.24,0,0,1,97,183,8.5,8.5,0,0,1,103.29,180.09Z"/><path class="cls-85" d="M114.11,210.57a15.37,15.37,0,0,0,6.07,5.47A14.73,14.73,0,0,0,125,217.3a18.67,18.67,0,0,0,13.07-3.83,17.57,17.57,0,0,0-12.61-7.93,11.39,11.39,0,0,0-4.86.31C118,206.69,116,208.59,114.11,210.57Z"/><path class="cls-12" d="M114.11,210.57a15.37,15.37,0,0,0,6.07,5.47A14.73,14.73,0,0,0,125,217.3a18.67,18.67,0,0,0,13.07-3.83,17.57,17.57,0,0,0-12.61-7.93,11.39,11.39,0,0,0-4.86.31C118,206.69,116,208.59,114.11,210.57Z"/><g class="cls-3"><path class="cls-115" d="M114.54,210.7q11.16.75,22.22,2.57"/><path class="cls-115" d="M125.59,215.94a21.24,21.24,0,0,1-5.8-4.83"/><path class="cls-115" d="M131.2,215.62c-1.64-1-3.36-2-4.3-3.71"/><path class="cls-115" d="M122.23,211.27a12,12,0,0,1,4-4"/><path class="cls-115" d="M129.51,212.18a15,15,0,0,1,3.63-3"/></g><path class="cls-87" d="M110.21,184.71A20.13,20.13,0,0,0,115,209.8a9.4,9.4,0,0,0,2.66-4.33,18.34,18.34,0,0,0-.26-11.91A16.79,16.79,0,0,0,110.21,184.71Z"/><g class="cls-67"><path class="cls-116" d="M114.88,209.47q-1.44-11.08-3.94-22"/><path class="cls-116" d="M109,198.78a21.27,21.27,0,0,0,5.17,5.49"/><path class="cls-116" d="M109,193.16a11.18,11.18,0,0,0,4,4.07"/><path class="cls-116" d="M113.83,201.84a11.68,11.68,0,0,0,3.91-4.06"/><path class="cls-116" d="M112.57,194.76a13.94,13.94,0,0,0,2.54-3.72"/></g><path class="cls-89" d="M104.89,197.88a17.42,17.42,0,0,0-12.68-.34c-6.13,2.49-9.52,9-11.84,15.2A73.13,73.13,0,0,0,75.31,236c-.11,3.69-.27,8,1.92,11.81a12.13,12.13,0,0,0,12.69,5.93c4.29-.7,38.81-5.39,41.31-21.36,1.17-7.47-3-14.54-6.93-19.21C119.41,207.34,112.16,200.69,104.89,197.88Z"/><g class="cls-53"><path class="cls-90" d="M103.82,199.61a1.07,1.07,0,0,1-1.07,0,1,1,0,0,1-.42-.81,1.91,1.91,0,0,1,.22-.91,3.46,3.46,0,0,1,.42-.63,18.79,18.79,0,0,1,1.92.64l.21.08a0,0,0,0,1,0,0,2.86,2.86,0,0,1-.46.86A2.32,2.32,0,0,1,103.82,199.61Z"/><path class="cls-90" d="M129.63,221.61a3.28,3.28,0,0,1-.68.55,1.89,1.89,0,0,1-.88.3,1.07,1.07,0,0,1-.85-.35,1.1,1.1,0,0,1-.1-1.07,2.6,2.6,0,0,1,.68-.87,3.11,3.11,0,0,1,.82-.53l0,0C129,220.27,129.33,220.93,129.63,221.61Z"/><path class="cls-90" d="M93.94,202.22a1.89,1.89,0,0,0-.07.94,1,1,0,0,0,.54.73,1.1,1.1,0,0,0,1.06-.16,2.46,2.46,0,0,0,.68-.88,2.78,2.78,0,0,0,.31-.92,1.1,1.1,0,0,0-.75-1.35c-.49-.12-1,.33-1.28.68A3,3,0,0,0,93.94,202.22Z"/><path class="cls-90" d="M86.48,216.66a1.89,1.89,0,0,0-.07.94,1,1,0,0,0,.55.73,1.06,1.06,0,0,0,1.05-.16,2.46,2.46,0,0,0,.68-.88,3.05,3.05,0,0,0,.32-.92,1.12,1.12,0,0,0-.76-1.35c-.49-.12-1,.33-1.28.68A3.23,3.23,0,0,0,86.48,216.66Z"/><path class="cls-90" d="M94.39,212.13a2,2,0,0,0-.19.92,1.06,1.06,0,0,0,.45.79,1.08,1.08,0,0,0,1.07,0,2.36,2.36,0,0,0,.79-.78,2.86,2.86,0,0,0,.42-.88,1.09,1.09,0,0,0-.58-1.43,1.43,1.43,0,0,0-1.35.51A3.25,3.25,0,0,0,94.39,212.13Z"/><path class="cls-90" d="M88.22,226.78a1.5,1.5,0,0,0-.16.78.86.86,0,0,0,.38.67.92.92,0,0,0,.91,0,2.14,2.14,0,0,0,.67-.67,2.54,2.54,0,0,0,.36-.74.94.94,0,0,0-.5-1.22c-.4-.16-.89.17-1.15.43A2.65,2.65,0,0,0,88.22,226.78Z"/><path class="cls-90" d="M89,237.38a1.57,1.57,0,0,0-.26.75.88.88,0,0,0,.29.72.91.91,0,0,0,.9.1,2,2,0,0,0,.75-.57,2.68,2.68,0,0,0,.46-.69.94.94,0,0,0-.33-1.28,1.23,1.23,0,0,0-1.2.28A2.68,2.68,0,0,0,89,237.38Z"/><path class="cls-90" d="M96.52,228.94a1.78,1.78,0,0,0-.3.85,1,1,0,0,0,.33.82,1,1,0,0,0,1,.11,2.33,2.33,0,0,0,.85-.65,2.87,2.87,0,0,0,.52-.78,1.06,1.06,0,0,0-.37-1.45,1.39,1.39,0,0,0-1.37.31A3.07,3.07,0,0,0,96.52,228.94Z"/><path class="cls-90" d="M106,218.65a1.89,1.89,0,0,0-.3.86,1,1,0,0,0,.33.81,1.05,1.05,0,0,0,1,.12,2.38,2.38,0,0,0,.85-.66,2.73,2.73,0,0,0,.52-.78,1.07,1.07,0,0,0-.37-1.45,1.37,1.37,0,0,0-1.36.32A2.89,2.89,0,0,0,106,218.65Z"/><path class="cls-90" d="M113,211a1.76,1.76,0,0,0-.29.85,1,1,0,0,0,.33.82,1,1,0,0,0,1,.11,2.28,2.28,0,0,0,.86-.65,2.73,2.73,0,0,0,.52-.78,1.07,1.07,0,0,0-.38-1.45c-.42-.24-1,.06-1.36.32A3.08,3.08,0,0,0,113,211Z"/><path class="cls-90" d="M82.64,245.15a1.57,1.57,0,0,0-.26.75.88.88,0,0,0,.29.72.91.91,0,0,0,.9.1,2,2,0,0,0,.75-.57,2.25,2.25,0,0,0,.46-.69.94.94,0,0,0-.33-1.28,1.24,1.24,0,0,0-1.2.28A2.68,2.68,0,0,0,82.64,245.15Z"/><path class="cls-90" d="M81.35,233.34a1.61,1.61,0,0,0-.16.78.88.88,0,0,0,.38.67.92.92,0,0,0,.91,0,2,2,0,0,0,.67-.67,2.54,2.54,0,0,0,.36-.74.94.94,0,0,0-.49-1.22c-.4-.16-.9.17-1.16.44A2.81,2.81,0,0,0,81.35,233.34Z"/><path class="cls-90" d="M80.37,223.26a1.52,1.52,0,0,0-.06.79.91.91,0,0,0,.47.62,1,1,0,0,0,.9-.14,2.06,2.06,0,0,0,.57-.76,2.32,2.32,0,0,0,.26-.78.94.94,0,0,0-.65-1.14c-.42-.1-.87.28-1.08.58A2.39,2.39,0,0,0,80.37,223.26Z"/><path class="cls-90" d="M85.94,207a1.91,1.91,0,0,0-.19.91,1.08,1.08,0,0,0,.45.8,1.1,1.1,0,0,0,1.07,0,2.39,2.39,0,0,0,.79-.79,2.8,2.8,0,0,0,.42-.87,1.11,1.11,0,0,0-.58-1.44c-.47-.18-1.06.21-1.35.52A3.11,3.11,0,0,0,85.94,207Z"/><path class="cls-90" d="M103.07,207.52a1.8,1.8,0,0,0-.22.91,1,1,0,0,0,.42.81,1.1,1.1,0,0,0,1.07,0,2.35,2.35,0,0,0,.81-.76,2.81,2.81,0,0,0,.46-.85,1.11,1.11,0,0,0-.52-1.46,1.44,1.44,0,0,0-1.38.46A3.11,3.11,0,0,0,103.07,207.52Z"/><path class="cls-90" d="M96.88,219.78a1.92,1.92,0,0,0-.23.91,1,1,0,0,0,1.49.82,2.35,2.35,0,0,0,.82-.75,3.25,3.25,0,0,0,.46-.86,1.12,1.12,0,0,0-.53-1.46c-.46-.2-1.06.16-1.37.46A3.26,3.26,0,0,0,96.88,219.78Z"/><path class="cls-90" d="M125.16,230.94a2,2,0,0,1-.93.15,1,1,0,0,1-.77-.49,1.09,1.09,0,0,1,.07-1.06,2.36,2.36,0,0,1,.82-.75,2.72,2.72,0,0,1,.89-.39,1.1,1.1,0,0,1,1.41.64,1.42,1.42,0,0,1-.57,1.33A3.23,3.23,0,0,1,125.16,230.94Z"/><path class="cls-90" d="M111.39,239.58a1.94,1.94,0,0,1-.92.15,1.06,1.06,0,0,1-.78-.49,1.11,1.11,0,0,1,.07-1.07,2.43,2.43,0,0,1,.82-.74,2.74,2.74,0,0,1,.89-.4,1.11,1.11,0,0,1,1.41.65c.16.47-.24,1-.57,1.33A3.23,3.23,0,0,1,111.39,239.58Z"/><path class="cls-90" d="M115.25,231.31a1.82,1.82,0,0,1-.9.27,1.05,1.05,0,0,1-.83-.38,1.1,1.1,0,0,1-.06-1.07,2.44,2.44,0,0,1,.72-.85,3.06,3.06,0,0,1,.83-.5,1.11,1.11,0,0,1,1.48.46,1.44,1.44,0,0,1-.4,1.4A3,3,0,0,1,115.25,231.31Z"/><path class="cls-90" d="M101.17,238.69a1.62,1.62,0,0,1-.76.22.9.9,0,0,1-.71-.32.92.92,0,0,1,0-.91,2,2,0,0,1,.61-.72,2.42,2.42,0,0,1,.71-.42.94.94,0,0,1,1.26.39,1.24,1.24,0,0,1-.34,1.18A2.87,2.87,0,0,1,101.17,238.69Z"/><path class="cls-90" d="M95.2,246.08a1.46,1.46,0,0,1-.76.22.9.9,0,0,1-.71-.32.92.92,0,0,1,0-.91,2.12,2.12,0,0,1,.61-.72,2.56,2.56,0,0,1,.71-.42,1,1,0,0,1,1.26.39c.19.39-.1.91-.34,1.18A2.7,2.7,0,0,1,95.2,246.08Z"/><path class="cls-90" d="M105.33,246.22a1.51,1.51,0,0,1-.78.12.88.88,0,0,1-.66-.42.91.91,0,0,1,.07-.9,2.15,2.15,0,0,1,.7-.64,2.41,2.41,0,0,1,.76-.32.94.94,0,0,1,1.19.55c.14.41-.21.89-.49,1.13A2.66,2.66,0,0,1,105.33,246.22Z"/><path class="cls-90" d="M121.11,239.3a1.82,1.82,0,0,1-.9.27,1,1,0,0,1-.83-.39,1.08,1.08,0,0,1-.06-1.06,2.44,2.44,0,0,1,.72-.85,3.06,3.06,0,0,1,.83-.5,1.1,1.1,0,0,1,1.48.46,1.44,1.44,0,0,1-.39,1.39A3.07,3.07,0,0,1,121.11,239.3Z"/><path class="cls-90" d="M119.12,222.28a1.89,1.89,0,0,1-.89.3,1.06,1.06,0,0,1-.84-.35,1.1,1.1,0,0,1-.1-1.07,2.32,2.32,0,0,1,.68-.87,2.75,2.75,0,0,1,.82-.53,1.09,1.09,0,0,1,1.49.4,1.44,1.44,0,0,1-.34,1.41A3.28,3.28,0,0,1,119.12,222.28Z"/><path class="cls-90" d="M107.19,229.27a1.89,1.89,0,0,1-.88.3,1.07,1.07,0,0,1-.85-.35,1.1,1.1,0,0,1-.1-1.07,2.34,2.34,0,0,1,.69-.87,2.7,2.7,0,0,1,.81-.53,1.1,1.1,0,0,1,1.5.4,1.42,1.42,0,0,1-.35,1.41A3.11,3.11,0,0,1,107.19,229.27Z"/></g><path class="cls-117" d="M89.92,253.74a12.13,12.13,0,0,1-12.69-5.93c-2.19-3.85-2-8.12-1.91-11.81,0-.73.06-1.45.12-2.19A32.78,32.78,0,0,1,80,235.6c9.52,4.06,20.58,3.54,30.36.14a72.84,72.84,0,0,0,20.28-11.44,18.42,18.42,0,0,1,.63,8.08C128.72,248.35,94.21,253,89.92,253.74Z"/><path class="cls-118" d="M111.66,201.52c-1.78,1.7-4.58,2.42-7.14,2.5-3.32.1-6.72-.51-9.93.37-3.77,1-6.72,4-8.8,7.33a26.89,26.89,0,0,1-2.74,4.05,5.56,5.56,0,0,1-4.3,2s-.07,0-.11,0c.53-1.68,1.1-3.35,1.73-5,2.32-6.2,5.71-12.71,11.85-15.2a17.34,17.34,0,0,1,12.67.35A33.49,33.49,0,0,1,111.66,201.52Z"/></g><g class="cls-50"><path class="cls-6" d="M284.32,262.56H94.16a40.18,40.18,0,0,1-40-36.61l-7.54-62.61h286l-8.33,63A40.18,40.18,0,0,1,284.32,262.56Z"/></g><g class="cls-53"><polygon class="cls-6" points="332.63 163.34 46.59 163.34 48.39 178.29 209.47 178.29 209.47 262.56 224.42 262.56 216.4 178.29 330.65 178.29 332.63 163.34"/></g><g class="cls-54"><path class="cls-6" d="M360.09,146.42a18.94,18.94,0,0,0-5.27-10.11l-18.95-20.2s-1.09-.81-3.39,0c-1.49.53,5.12,11.44,10,19.15a18.8,18.8,0,0,1,2.6,13.49l-.66,3.55A41.79,41.79,0,0,0,351,183.7c1,1.49,1.73,2.3,1.73,2.3h.5a4.1,4.1,0,0,0,4.08-4.37c-.32-5.13.83-10.37,2-15.42A46.26,46.26,0,0,0,360.09,146.42Z"/></g><path class="cls-55" d="M359.36,166.21c-1.19,5-2.32,10.29-2,15.42a4.09,4.09,0,0,1-4.09,4.36h-.48l-.26-.31c-1.46-4.19-1.25-9-.38-13.48,1.15-6,3.31-12,3.15-18.1-.17-7.14-3.84-14.76-8-20.63l.69-4.42,6.81,7.25a19.06,19.06,0,0,1,5.26,10.12A46.09,46.09,0,0,1,359.36,166.21Z"/><g class="cls-54"><path class="cls-6" d="M19.14,146.42a19,19,0,0,1,5.27-10.11l19-20.2s1.09-.81,3.4,0c1.48.53-5.12,11.44-10,19.15a18.8,18.8,0,0,0-2.6,13.49l.66,3.55a41.79,41.79,0,0,1-6.61,31.4c-1,1.49-1.73,2.3-1.73,2.3H26a4.1,4.1,0,0,1-4.08-4.37c.32-5.13-.82-10.37-2-15.42A46.26,46.26,0,0,1,19.14,146.42Z"/></g><path class="cls-55" d="M19.87,166.21c1.19,5,2.33,10.29,2,15.42A4.09,4.09,0,0,0,26,186h.49l.25-.31c1.46-4.19,1.25-9,.38-13.48-1.15-6-3.3-12-3.15-18.1.17-7.14,3.84-14.76,8-20.63l-.69-4.42-6.81,7.25a19.06,19.06,0,0,0-5.26,10.12A46.09,46.09,0,0,0,19.87,166.21Z"/><path class="cls-6" d="M348.17,149.53H31.06v12.33h0c0,4.25,4.84,8.23,11.86,8.23H336.31c7,0,11.92-4,11.86-8.23h0Z"/><g class="cls-51"><path class="cls-52" d="M76.57,184.55c2.83,25.54,5.66,29.47,8.5,55"/><path class="cls-52" d="M302.66,184.55c-2.83,25.54-5.66,29.47-8.5,55"/></g><path class="cls-56" d="M348.17,129.69H31.06v18.82h0c0,4.25,4.84,8.23,11.86,8.23H336.31c7,0,11.92-4,11.86-8.23h0Z"/><path class="cls-57" d="M336.31,139H42.92c-9.51,0-15.14-7.3-9.8-12.7l8.15-8.23c4.63-4.68,12.33-7.48,20.57-7.48H317.4c8.23,0,15.93,2.8,20.56,7.48l8.15,8.23C351.45,131.69,345.82,139,336.31,139Z"/><path class="cls-55" d="M276.54,139v34.19a22.71,22.71,0,0,1-20,22.55c-63.86,4.93-133.93,0-133.93,0a22.71,22.71,0,0,1-20-22.55V139h7.56v34.19a15.15,15.15,0,0,0,13.06,15c4.17.18,30.21,2.17,77.93,2.17,29.07,0,36-.72,54.57-2.16a15.15,15.15,0,0,0,13.17-15V139Z"/><g class="cls-5"><path class="cls-6" d="M201.25,190.4c-47.73,0-73.77-2-77.94-2.17a15.15,15.15,0,0,1-13.06-15V139H269v34.21a15.14,15.14,0,0,1-13.17,15C237.2,189.67,230.32,190.4,201.25,190.4Z"/></g><g class="cls-58"><ellipse class="cls-57" cx="189.62" cy="123.69" rx="76.03" ry="7.27"/></g><g class="cls-5"><path class="cls-6" d="M216.17,127.58H162.42a33.75,33.75,0,0,1-33.6-30.73L122.5,44.29H256.73l-7,52.86A33.75,33.75,0,0,1,216.17,127.58Z"/></g><g class="cls-7"><path class="cls-6" d="M226.54,122.9H151.92c-4.75,0-7.56-3.64-4.89-6.34l4.06-4.1c2.32-2.34,6.16-3.74,10.27-3.74H217.1c4.11,0,8,1.4,10.26,3.74l4.07,4.1C234.09,119.26,231.28,122.9,226.54,122.9Z"/></g><path class="cls-87" d="M191.45,80.23c2.58,7.67,10,19.1,21.06,28.15a32.37,32.37,0,0,0,11.63,5.72,11.2,11.2,0,0,0,11.47-3.9,35.81,35.81,0,0,0,4.93-9.72c4.69-13.47,5.08-27.11,3.28-35S237.89,50,231,45.25c-6.39-4.46-15-5.69-23.07-3.42-7.68,2.16-13,7.33-16.16,14.47C188.44,64,188.87,72.57,191.45,80.23Z"/><g class="cls-119"><path class="cls-120" d="M191.45,80.23c2.58,7.67,10,19.1,21.06,28.15a32.37,32.37,0,0,0,11.63,5.72,11.2,11.2,0,0,0,11.47-3.9,35.81,35.81,0,0,0,4.93-9.72c4.69-13.47,5.08-27.11,3.28-35S237.89,50,231,45.25c-6.39-4.46-15-5.69-23.07-3.42-7.68,2.16-13,7.33-16.16,14.47C188.44,64,188.87,72.57,191.45,80.23Z"/></g><path class="cls-121" d="M224.68,97.8C221,84.62,212.35,54.5,206,35.88"/><path class="cls-121" d="M212,89.29c-.24-7.14.6-14.23,3.95-20.44"/><path class="cls-121" d="M231.73,68.11a55.92,55.92,0,0,0-12.21-8.78,13.35,13.35,0,0,0-5.79-1.87"/><path class="cls-121" d="M232.05,87.69a42.23,42.23,0,0,0-12.19-6.76"/><path class="cls-121" d="M209.13,48a26.69,26.69,0,0,0-7.64,16.63"/><path class="cls-122" d="M224.13,114.12a32.45,32.45,0,0,1-11.61-5.74c-11-9-18.49-20.47-21.07-28.13s-3-16.3.34-24c3.12-7.14,8.5-12.29,16.18-14.47.45-.14.9-.24,1.37-.35-18.47,26.8-6.62,60.76,24.85,70.19A11.27,11.27,0,0,1,224.13,114.12Z"/><path class="cls-87" d="M151.69,115.5c7.66,4.12,21.94,7.61,37.25,6.59A34.75,34.75,0,0,0,202.28,118a12,12,0,0,0,6.13-11.5,38.51,38.51,0,0,0-3.28-11.26c-6.24-14-16-25-23.2-29.89s-16-7.76-24.93-6.47c-8.3,1.21-16,6.6-20.63,14.3-4.44,7.36-4.83,15.36-2,23.26C137.35,105,144,111.39,151.69,115.5Z"/><g class="cls-119"><path class="cls-120" d="M151.69,115.5c7.66,4.12,21.94,7.61,37.25,6.59A34.75,34.75,0,0,0,202.28,118a12,12,0,0,0,6.13-11.5,38.51,38.51,0,0,0-3.28-11.26c-6.24-14-16-25-23.2-29.89s-16-7.76-24.93-6.47c-8.3,1.21-16,6.6-20.63,14.3-4.44,7.36-4.83,15.36-2,23.26C137.35,105,144,111.39,151.69,115.5Z"/></g><path class="cls-123" d="M190.71,104.83c-12.62-7.62-39.5-24.08-58.23-34"/><path class="cls-123" d="M174.51,107.46c-5.44-5.42-10-11.61-11.95-19"/><path class="cls-123" d="M174.38,76.33a59.61,59.61,0,0,0-16,2.11,14.24,14.24,0,0,0-5.93,2.79"/><path class="cls-123" d="M189.05,91.47a44.85,44.85,0,0,0-14.54,3.67"/><path class="cls-123" d="M141.85,77.21a28.71,28.71,0,0,0,6.24,18.67"/><path class="cls-124" d="M202.29,118a35.16,35.16,0,0,1-13.34,4c-15.32,1-29.59-2.46-37.25-6.57S137.34,105,134.33,96.46c-2.8-7.9-2.39-15.9,2-23.27.26-.44.54-.85.82-1.29,5.23,34.64,39.54,52.58,71.18,36.81A12.1,12.1,0,0,1,202.29,118Z"/><path class="cls-87" d="M192.91,54.07c-8.51-4.67-24.39-8.68-41.47-7.68a38.66,38.66,0,0,0-14.91,4.4,13.44,13.44,0,0,0-6.94,12.78,42.77,42.77,0,0,0,3.56,12.57c6.82,15.7,17.58,28.05,25.58,33.53s17.79,8.81,27.74,7.44c9.26-1.27,17.87-7.2,23.12-15.75,5-8.16,5.53-17.07,2.48-25.9C208.79,66,201.41,58.73,192.91,54.07Z"/><path class="cls-125" d="M149.31,65.61c13.62,8.38,44.43,27.13,65.22,38.48"/><path class="cls-125" d="M167.39,62.83c6,6.09,11.05,13,13.14,21.23"/><path class="cls-125" d="M167.25,97.53a66.41,66.41,0,0,0,17.91-2.21,15.74,15.74,0,0,0,6.63-3"/><path class="cls-125" d="M151,80.51a50.08,50.08,0,0,0,16.24-4"/><path class="cls-125" d="M203.52,96.85A31.93,31.93,0,0,0,196.73,76"/><path class="cls-126" d="M213.57,90.75a28.17,28.17,0,0,1-4,10.62c-5.24,8.54-13.86,14.47-23.12,15.74-10,1.36-19.73-1.94-27.74-7.43S140,91.83,133.16,76.14a42.93,42.93,0,0,1-3.57-12.58,13.44,13.44,0,0,1,5.46-11.84C134.55,99.51,181.53,119.61,213.57,90.75Z"/><g class="cls-50"><path class="cls-6" d="M216.17,127.58H162.42a33.75,33.75,0,0,1-33.6-30.73L122.5,44.29H256.73l-7,52.86A33.75,33.75,0,0,1,216.17,127.58Z"/></g><g class="cls-53"><polygon class="cls-6" points="256.73 44.29 122.5 44.29 124.01 56.84 255.07 56.84 256.73 44.29"/></g><g class="cls-54"><path class="cls-6" d="M279.78,30.08a15.89,15.89,0,0,0-4.43-8.48l-15.9-17s-.92-.69-2.85,0c-1.25.43,4.29,9.6,8.4,16.07A15.75,15.75,0,0,1,267.19,32l-.55,3a35.08,35.08,0,0,0,5.54,26.36c.87,1.25,1.46,1.93,1.46,1.93h.41a3.44,3.44,0,0,0,3.43-3.67c-.27-4.3.69-8.7,1.69-13A38.82,38.82,0,0,0,279.78,30.08Z"/></g><path class="cls-55" d="M279.16,46.69c-1,4.24-2,8.64-1.68,13a3.44,3.44,0,0,1-3.43,3.66h-.41l-.22-.26c-1.23-3.51-1-7.59-.32-11.32,1-5.06,2.78-10,2.65-15.19-.14-6-3.23-12.39-6.7-17.32l.59-3.71,5.71,6.09a16,16,0,0,1,4.42,8.5A38.46,38.46,0,0,1,279.16,46.69Z"/><g class="cls-54"><path class="cls-6" d="M99.46,30.08a15.81,15.81,0,0,1,4.42-8.48l15.91-17s.91-.69,2.84,0c1.25.43-4.29,9.6-8.4,16.07A15.75,15.75,0,0,0,112,32l.56,3a35.13,35.13,0,0,1-5.55,26.36c-.87,1.25-1.45,1.93-1.45,1.93h-.42a3.44,3.44,0,0,1-3.43-3.67c.27-4.3-.69-8.7-1.69-13A38.66,38.66,0,0,1,99.46,30.08Z"/></g><path class="cls-55" d="M100.07,46.69c1,4.24,2,8.64,1.68,13a3.44,3.44,0,0,0,3.44,3.66h.4a2.85,2.85,0,0,0,.22-.26c1.23-3.51,1-7.59.32-11.32-1-5.06-2.78-10-2.65-15.19.14-6,3.23-12.39,6.7-17.32l-.58-3.71-5.72,6.09a16,16,0,0,0-4.42,8.5A38.46,38.46,0,0,0,100.07,46.69Z"/><path class="cls-6" d="M269.77,32.7H109.46V43.05h0c0,3.57,4.06,6.9,10,6.9H259.82c5.89,0,10-3.33,9.95-6.9h0Z"/><g class="cls-51"><path class="cls-127" d="M147.66,62.09c2.38,21.44,4.76,24.74,7.13,46.18"/><path class="cls-127" d="M231.57,62.09c-2.38,21.44-4.75,24.74-7.13,46.18"/></g><path class="cls-56" d="M269.77,16H109.46v15.8h0c0,3.57,4.06,6.91,10,6.91H259.82c5.89,0,10-3.34,9.95-6.91h0Z"/><path class="cls-57" d="M259.82,23.85H119.41c-8,0-12.7-6.13-8.22-10.66L118,6.28C121.91,2.35,128.38,0,135.29,0H243.94c6.91,0,13.38,2.35,17.26,6.28L268,13.19C272.52,17.72,267.8,23.85,259.82,23.85Z"/><path class="cls-55" d="M240,23.84v28.7a19.08,19.08,0,0,1-16.76,18.93c-29.29,2.37-67.28,0-67.28,0a19.08,19.08,0,0,1-16.77-18.93V23.84h6.36V52.55a12.71,12.71,0,0,0,11,12.58h.22c2.63.16,17.24,1.61,32.5,1.72,12.52.08,25.51-1.1,32.7-1.67l.66,0a12.71,12.71,0,0,0,11-12.59V23.84Z"/><g class="cls-5"><path class="cls-6" d="M156.53,65.13a12.72,12.72,0,0,1-11-12.59V23.83h88.1V52.54a12.72,12.72,0,0,1-11,12.6c-7,.54-20.44,1.8-33.36,1.72C173.49,66.75,158.45,65.21,156.53,65.13Z"/></g><path class="cls-128" d="M338,106.86c5-2,6.61-3.59,8.59-8.59,2,5,3.6,6.61,8.59,8.59-5,2-6.6,3.6-8.59,8.59C344.62,110.46,343,108.85,338,106.86Z"/><path class="cls-128" d="M349.54,120.68c3.66-1.46,4.83-2.63,6.29-6.29,1.45,3.66,2.63,4.83,6.29,6.29-3.66,1.45-4.84,2.63-6.29,6.29C354.37,123.31,353.2,122.13,349.54,120.68Z"/><path class="cls-128" d="M351.84,361.25c3.66-1.45,4.83-2.63,6.29-6.29,1.45,3.66,2.63,4.84,6.29,6.29-3.66,1.45-4.84,2.63-6.29,6.29C356.67,363.88,355.5,362.7,351.84,361.25Z"/><circle class="cls-128" cx="111.37" cy="97.85" r="4.72"/><circle class="cls-128" cx="22.16" cy="239.94" r="6.29"/><path class="cls-128" d="M97.77,13.14a4.8,4.8,0,0,0,3.32,3.33,4.77,4.77,0,0,0-3.32,3.32,4.77,4.77,0,0,0-3.32-3.32A4.8,4.8,0,0,0,97.77,13.14Z"/><circle class="cls-128" cx="103.19" cy="6.47" r="5.89"/></g></g></g></svg>